<svg width="500" height="500" viewBox="0 0 500 500" fill="none" xmlns="http://www.w3.org/2000/svg">
<g clip-path="url(#clip0_15901_2)">
<path d="M363.617 413.053L385.842 451.171C388.642 455.892 395.467 455.892 398.092 451.171L420.142 412.878L509.217 258.83C512.367 253.41 512.367 246.59 509.217 240.995L420.142 86.9474L398.092 48.6541C395.292 43.933 388.467 43.933 385.842 48.6541L363.617 86.7726L336.317 133.459L273.667 241.17C270.517 246.765 270.517 253.585 273.667 259.005L336.317 366.366L363.617 413.053ZM398.442 241.17L368.692 189.762C366.067 185.391 366.067 179.97 368.692 175.424L387.067 143.775C389.167 140.278 394.242 140.278 396.342 143.775L453.567 242.918C456.192 247.29 456.192 252.71 453.567 257.082L396.342 356.225C394.242 359.722 389.167 359.722 387.067 356.225L368.692 324.576C366.067 320.204 366.067 314.784 368.692 310.238L398.442 258.83C401.592 253.41 401.592 246.59 398.442 241.17Z" fill="#222222"/>
<path d="M293.791 109.154L321.266 62.2929L343.666 23.9995C346.466 19.2785 342.966 13.3334 337.541 13.3334H293.091H114.416C108.116 13.3334 102.166 16.6556 99.0165 22.251L9.76647 176.648L-12.2835 214.942C-15.0835 219.663 -11.5835 225.608 -6.15853 225.608H38.1165H92.3665H169.191H215.741C222.041 225.608 227.991 222.285 231.141 216.865L240.066 201.478L293.791 109.154ZM71.0165 168.605L128.241 69.4619C130.866 65.0905 135.416 62.2929 140.491 62.2929H255.116C259.316 62.2929 261.766 66.6642 259.666 70.3362L241.116 102.16C238.491 106.531 233.941 109.154 228.866 109.154H169.716C163.416 109.154 157.466 112.476 154.316 118.072L124.741 169.479C122.116 173.851 117.566 176.648 112.491 176.648H75.7415C71.5415 176.473 68.9165 172.102 71.0165 168.605Z" fill="#222222"/>
<path d="M321.266 437.707L293.966 390.846L240.241 298.697L231.316 283.31C228.166 277.889 222.216 274.567 215.916 274.567H169.366H92.3665H38.1165H-6.15853C-11.5835 274.567 -15.0835 280.512 -12.2835 285.233L9.94147 323.527L99.1915 477.924C102.341 483.344 108.291 486.841 114.591 486.841H293.266H337.716C343.141 486.841 346.641 480.896 343.841 476.175L321.266 437.707ZM128.241 430.713L71.0165 331.57C68.9165 328.073 71.5415 323.527 75.5665 323.527H112.316C117.391 323.527 122.116 326.149 124.566 330.696L154.141 382.103C157.291 387.524 163.241 391.021 169.541 391.021H228.691C233.766 391.021 238.491 393.644 240.941 398.015L259.491 429.839C261.591 433.336 258.966 437.882 254.941 437.882H140.666C135.591 437.707 130.866 435.084 128.241 430.713Z" fill="#222222"/>
</g>
<defs>
<clipPath id="clip0_15901_2">
<rect width="500" height="500" fill="white"/>
</clipPath>
</defs>
</svg>
