<svg width="167" height="167" viewBox="0 0 167 167" fill="none" xmlns="http://www.w3.org/2000/svg">
<mask id="mask0_15937_28" style="mask-type:luminance" maskUnits="userSpaceOnUse" x="0" y="0" width="167" height="167">
<path d="M0 0H166.521V166.521H0V0Z" fill="white"/>
</mask>
<g mask="url(#mask0_15937_28)">
<mask id="mask1_15937_28" style="mask-type:luminance" maskUnits="userSpaceOnUse" x="0" y="0" width="167" height="167">
<path d="M26 0H140.521C147.417 0 154.031 2.73958 158.906 7.61458C163.781 12.4896 166.521 19.1042 166.521 26V140.521C166.521 147.417 163.781 154.031 158.906 158.906C154.031 163.781 147.417 166.521 140.521 166.521H26C19.1042 166.521 12.4896 163.781 7.61458 158.906C2.73958 154.031 0 147.417 0 140.521V26C0 19.1042 2.73958 12.4896 7.61458 7.61458C12.4896 2.73958 19.1042 0 26 0Z" fill="white"/>
</mask>
<g mask="url(#mask1_15937_28)">
<path d="M0 0H166.521V166.521H0V0Z" fill="#FB3A5D"/>
</g>
</g>
<mask id="mask2_15937_28" style="mask-type:luminance" maskUnits="userSpaceOnUse" x="16" y="33" width="32" height="101">
<path d="M16.5625 33.3333H47.9271V133.26H16.5625V33.3333Z" fill="white"/>
</mask>
<g mask="url(#mask2_15937_28)">
<path fill-rule="evenodd" clip-rule="evenodd" d="M44.3178 44.427H47.0938V33.3333H44.3178C35.1303 33.3333 27.6771 40.7812 27.6771 49.9739V69.3853C27.6771 71.1353 26.8542 72.776 25.4584 73.8228L18.8021 78.8176C17.4688 79.8176 16.6563 81.3593 16.5886 83.026C16.5209 84.6874 17.2032 86.2968 18.448 87.401L25.8178 93.9478C27 94.9999 27.6771 96.5103 27.6771 98.0937V116.536C27.6771 125.724 35.1303 133.177 44.3178 133.177H47.0938V122.083H44.3178C41.2553 122.083 38.7709 119.599 38.7709 116.536V98.0937C38.7709 93.3437 36.7396 88.8176 33.1875 85.6562L30.8907 83.6197L32.1146 82.6978C36.3073 79.5572 38.7709 74.6249 38.7709 69.3853V49.9739C38.7709 46.9114 41.2553 44.427 44.3178 44.427Z" fill="#EFEFEF"/>
</g>
<mask id="mask3_15937_28" style="mask-type:luminance" maskUnits="userSpaceOnUse" x="119" y="33" width="32" height="101">
<path d="M119.927 33.3333H150.594V133.26H119.927V33.3333Z" fill="white"/>
</mask>
<g mask="url(#mask3_15937_28)">
<path fill-rule="evenodd" clip-rule="evenodd" d="M122.75 44.427H119.974V33.3333H122.75C131.938 33.3333 139.391 40.7812 139.391 49.9739V69.3853C139.391 71.1353 140.214 72.776 141.61 73.8228L148.266 78.8176C149.599 79.8176 150.412 81.3593 150.479 83.026C150.547 84.6874 149.865 86.2968 148.62 87.401L141.25 93.9478C140.068 94.9999 139.391 96.5103 139.391 98.0937V116.536C139.391 125.724 131.938 133.177 122.75 133.177H119.974V122.083H122.75C125.813 122.083 128.297 119.599 128.297 116.536V98.0937C128.297 93.3437 130.328 88.8176 133.886 85.6562L136.177 83.6197L134.953 82.6978C130.761 79.5572 128.297 74.6249 128.297 69.3853V49.9739C128.297 46.9114 125.813 44.427 122.75 44.427Z" fill="#EFEFEF"/>
</g>
<path d="M107.992 95.4935C107.992 102.509 105.523 108.014 100.596 112.014C95.6796 116.014 89.6484 118.014 82.5129 118.014C73.4556 118.014 65.6848 116.098 59.2004 112.264L63.8671 101.264C69.0181 106.087 74.8046 108.493 81.2213 108.493C84.5963 108.493 87.4817 107.572 89.8879 105.723C92.3046 103.863 93.5129 101.28 93.5129 97.9727C93.5129 95.5977 92.7213 93.4883 91.1379 91.6393C89.5546 89.7799 87.5859 88.3216 85.2421 87.2643C82.8931 86.2122 80.3306 84.9727 77.5546 83.556C74.7734 82.1289 72.2109 80.6914 69.8671 79.2435C67.5181 77.7852 65.5442 75.7174 63.9504 73.0352C62.3671 70.3581 61.5754 67.2643 61.5754 63.7643C61.5754 56.9466 63.9348 51.7852 68.6588 48.2852C73.3931 44.7852 79.7004 43.0352 87.5754 43.0352C90.5442 43.0352 93.9817 43.6341 97.8879 44.8268C101.789 46.0091 104.763 47.3893 106.805 48.9727L99.9713 57.5143C96.2629 54.2122 91.7004 52.556 86.2838 52.556C83.5025 52.556 81.1015 53.2852 79.0754 54.7435C77.0598 56.1914 76.0546 58.2383 76.0546 60.8893C76.0546 63.1966 76.8463 65.2331 78.4296 66.9935C80.0234 68.7435 81.9973 70.1497 84.3463 71.2018C86.69 72.2591 89.2525 73.5143 92.0338 74.9727C94.8098 76.431 97.3723 77.9049 99.7213 79.3893C102.065 80.8789 104.034 83.0091 105.617 85.7852C107.2 88.5664 107.992 91.8008 107.992 95.4935Z" fill="white"/>
</svg>
