<svg width="472" height="237" viewBox="0 0 472 237" fill="none" xmlns="http://www.w3.org/2000/svg">
<rect x="0.0864258" y="0.521606" width="471.914" height="235.957" rx="10.4087" fill="white"/>
<rect x="18.2368" y="39.2966" width="26.0219" height="8.24026" rx="2.60219" fill="#F9E3E2"/>
<rect x="18.2368" y="50.5728" width="86.7396" height="17.3479" rx="2.60219" fill="#D9D9D9"/>
<rect x="18.2368" y="111.724" width="65.4884" height="8.24026" rx="2.60219" fill="#F9E3E2"/>
<rect x="18.2368" y="123.001" width="99.7505" height="17.3479" rx="2.60219" fill="#D9D9D9"/>
<rect x="18.2368" y="184.152" width="32.961" height="8.24026" rx="2.60219" fill="#F9E3E2"/>
<rect x="18.2368" y="195.428" width="92.8114" height="17.3479" rx="2.60219" fill="#D9D9D9"/>
<rect x="132.299" y="39.2966" width="66.3558" height="8.24026" rx="2.60219" fill="#F9E3E2"/>
<rect x="132.299" y="50.5728" width="88.4744" height="17.3479" rx="2.60219" fill="#D9D9D9"/>
<rect x="132.299" y="111.724" width="68.8716" height="8.24026" rx="2.60219" fill="#F9E3E2"/>
<rect x="132.299" y="123.001" width="94.9798" height="17.3479" rx="2.60219" fill="#D9D9D9"/>
<rect x="132.299" y="184.152" width="66.3558" height="8.24026" rx="2.60219" fill="#F9E3E2"/>
<rect x="132.299" y="195.428" width="88.4744" height="17.3479" rx="2.60219" fill="#D9D9D9"/>
<rect x="247.229" y="39.2966" width="66.3558" height="8.24026" rx="2.60219" fill="#F9E3E2"/>
<rect x="247.229" y="50.5728" width="88.4744" height="17.3479" rx="2.60219" fill="#D9D9D9"/>
<rect x="247.229" y="111.724" width="66.3558" height="8.24026" rx="2.60219" fill="#F9E3E2"/>
<rect x="247.229" y="123.001" width="93.245" height="17.3479" rx="2.60219" fill="#D9D9D9"/>
<rect x="247.229" y="184.152" width="66.3558" height="8.24026" rx="2.60219" fill="#F9E3E2"/>
<rect x="247.229" y="195.428" width="88.4744" height="17.3479" rx="2.60219" fill="#D9D9D9"/>
<rect x="353.485" y="39.2966" width="66.3558" height="8.24026" rx="2.60219" fill="#F9E3E2"/>
<rect x="353.485" y="50.5728" width="88.4744" height="17.3479" rx="2.60219" fill="#D9D9D9"/>
<rect x="353.485" y="111.724" width="66.3558" height="8.24026" rx="2.60219" fill="#F9E3E2"/>
<rect x="353.485" y="123.001" width="98.0157" height="17.3479" rx="2.60219" fill="#D9D9D9"/>
<rect x="353.485" y="184.152" width="66.3558" height="8.24026" rx="2.60219" fill="#F9E3E2"/>
<rect x="353.485" y="195.428" width="100.184" height="17.3479" rx="2.60219" fill="#D9D9D9"/>
<rect x="18.2368" y="24.1172" width="8.67396" height="8.67396" fill="#FF8C9C"/>
<rect x="18.2368" y="94.3763" width="8.67396" height="8.67396" fill="#FF8C9C"/>
<rect x="18.2368" y="169.406" width="8.67396" height="8.67396" fill="#FF8C9C"/>
<rect x="132.299" y="24.1172" width="8.67396" height="8.67396" fill="#FF8C9C"/>
<rect x="132.299" y="94.3763" width="8.67396" height="8.67396" fill="#FF8C9C"/>
<rect x="132.299" y="169.406" width="8.67396" height="8.67396" fill="#FF8C9C"/>
<rect x="247.229" y="24.1172" width="8.67396" height="8.67396" fill="#FF8C9C"/>
<rect x="247.229" y="94.3763" width="8.67396" height="8.67396" fill="#FF8C9C"/>
<rect x="247.229" y="169.406" width="8.67396" height="8.67396" fill="#FF8C9C"/>
<rect x="353.485" y="24.1172" width="8.67396" height="8.67396" fill="#FF8C9C"/>
<rect x="353.485" y="94.3763" width="8.67396" height="8.67396" fill="#FF8C9C"/>
<rect x="353.485" y="169.406" width="8.67396" height="8.67396" fill="#FF8C9C"/>
</svg>
