<svg width="472" height="237" viewBox="0 0 472 237" fill="none" xmlns="http://www.w3.org/2000/svg">
<rect y="0.75" width="472" height="236" rx="15.8827" fill="white"/>
<rect x="11.9121" y="33.839" width="11.912" height="11.912" fill="#FF8C9C"/>
<rect x="11.2505" y="61.6337" width="135.665" height="19.8534" rx="2.64711" fill="#D9D9D9"/>
<rect x="11.2505" y="96.0461" width="80.0752" height="9.92668" rx="2.64711" fill="#F9E3E2"/>
<rect x="332.213" y="37.1479" width="27.1329" height="9.92668" rx="2.64711" fill="#F9E3E2"/>
<rect x="332.213" y="56.3394" width="41.0303" height="9.92668" rx="2.64711" fill="#D9D9D9"/>
<rect x="405.67" y="56.3394" width="17.868" height="9.92668" rx="2.64711" fill="#D9D9D9"/>
<rect x="405.67" y="75.531" width="21.8387" height="9.92668" rx="2.64711" fill="#D9D9D9"/>
<rect x="405.67" y="94.7225" width="46.3245" height="9.92668" rx="2.64711" fill="#D9D9D9"/>
<rect x="405.67" y="113.914" width="49.6334" height="9.92668" rx="2.64711" fill="#D9D9D9"/>
<rect x="332.213" y="75.531" width="28.4565" height="9.92668" rx="2.64711" fill="#D9D9D9"/>
<rect x="332.213" y="94.7225" width="28.4565" height="9.92668" rx="2.64711" fill="#D9D9D9"/>
<rect x="332.213" y="113.914" width="28.4565" height="9.92668" rx="2.64711" fill="#D9D9D9"/>
<rect x="405.67" y="37.1479" width="29.1183" height="9.92668" rx="2.64711" fill="#F9E3E2"/>
<rect x="11.2505" y="195.975" width="107.208" height="9.92668" rx="2.64711" fill="#D9D9D9"/>
</svg>
