<svg width="260" height="130" viewBox="0 0 260 130" fill="none" xmlns="http://www.w3.org/2000/svg">
<g clip-path="url(#clip0_406_10)">
<rect width="260" height="130" rx="4.5" fill="white"/>
<rect x="122" y="6.67505" width="15.5625" height="6.5625" rx="3" fill="#F9E3E2"/>
<rect x="79" y="19.9875" width="102.188" height="7.5" rx="3" fill="#D9D9D9" fill-opacity="0.85098"/>
<rect x="24.6875" y="91.05" width="57" height="8.4375" rx="3" fill="#FF8C9C"/>
<rect x="24.6875" y="76.05" width="19.875" height="8.4375" rx="3" fill="#D9D9D9"/>
<rect x="24.6875" y="61.05" width="55.3125" height="4.5" rx="2.25" fill="#D9D9D9"/>
<rect x="24.6875" y="52.8" width="22.5" height="4.5" rx="2.25" fill="#F9E3E2"/>
<rect x="20.0937" y="48.7688" width="66.9375" height="96.375" rx="2.15625" stroke="#D9D9D9" stroke-width="0.1875"/>
<rect x="30.3125" y="108.113" width="30.5625" height="3" rx="1.5" fill="#D9D9D9"/>
<rect x="30.3125" y="118.05" width="48" height="3" rx="1.5" fill="#D9D9D9"/>
<rect x="30.3125" y="127.988" width="38.25" height="3" rx="1.5" fill="#D9D9D9"/>
<rect x="24.876" y="117.675" width="3.75" height="3.75" fill="#F9E3E2"/>
<rect x="24.876" y="127.613" width="3.75" height="3.75" fill="#F9E3E2"/>
<rect x="24.876" y="107.738" width="3.75" height="3.75" fill="#F9E3E2"/>
<rect x="99.125" y="91.05" width="57" height="8.4375" rx="3" fill="#FF8C9C"/>
<rect x="99.125" y="76.05" width="19.875" height="8.4375" rx="3" fill="#D9D9D9"/>
<rect x="99.125" y="61.05" width="55.3125" height="4.5" rx="2.25" fill="#D9D9D9"/>
<rect x="99.125" y="52.8" width="22.5" height="4.5" rx="2.25" fill="#F9E3E2"/>
<rect x="94.5312" y="48.7688" width="66.9375" height="96.375" rx="2.15625" stroke="#D9D9D9" stroke-width="0.1875"/>
<rect x="104.75" y="108.113" width="30.5625" height="3" rx="1.5" fill="#D9D9D9"/>
<rect x="104.75" y="118.05" width="48" height="3" rx="1.5" fill="#D9D9D9"/>
<rect x="104.75" y="127.988" width="38.25" height="3" rx="1.5" fill="#D9D9D9"/>
<rect x="99.3125" y="117.675" width="3.75" height="3.75" fill="#F9E3E2"/>
<rect x="99.3125" y="127.613" width="3.75" height="3.75" fill="#F9E3E2"/>
<rect x="99.3125" y="107.738" width="3.75" height="3.75" fill="#F9E3E2"/>
<rect x="173.125" y="91.05" width="57" height="8.4375" rx="3" fill="#FF8C9C"/>
<rect x="173.125" y="76.05" width="19.875" height="8.4375" rx="3" fill="#D9D9D9"/>
<rect x="173.125" y="61.05" width="55.3125" height="4.5" rx="2.25" fill="#D9D9D9"/>
<rect x="173.125" y="52.8" width="22.5" height="4.5" rx="2.25" fill="#F9E3E2"/>
<rect x="168.531" y="48.7688" width="66.9375" height="96.375" rx="2.15625" stroke="#D9D9D9" stroke-width="0.1875"/>
<rect x="178.75" y="108.113" width="30.5625" height="3" rx="1.5" fill="#D9D9D9"/>
<rect x="178.75" y="118.05" width="48" height="3" rx="1.5" fill="#D9D9D9"/>
<rect x="178.75" y="127.988" width="38.25" height="3" rx="1.5" fill="#D9D9D9"/>
<rect x="173.313" y="117.675" width="3.75" height="3.75" fill="#F9E3E2"/>
<rect x="173.313" y="127.612" width="3.75" height="3.75" fill="#F9E3E2"/>
<rect x="173.313" y="107.738" width="3.75" height="3.75" fill="#F9E3E2"/>
<g clip-path="url(#clip1_406_10)">
<rect y="1" width="260" height="130" rx="4.5" fill="white"/>
<rect x="24.6865" y="92.246" width="57" height="8.4375" rx="3" fill="#FE5179"/>
<rect x="24.6865" y="62.246" width="55.3125" height="4.5" rx="2.25" fill="#F6F6F6"/>
<rect x="24.6865" y="53.996" width="22.5" height="4.5" rx="2.25" fill="#F9E3E2"/>
<rect x="20.0937" y="49.9647" width="66.9375" height="96.375" rx="2.15625" stroke="#F6F6F6" stroke-width="0.1875"/>
<rect x="30.3125" y="109.309" width="30.5625" height="3" rx="1.5" fill="#F6F6F6"/>
<rect x="30.3125" y="119.246" width="48" height="3" rx="1.5" fill="#F6F6F6"/>
<rect x="30.3125" y="129.183" width="38.25" height="3" rx="1.5" fill="#F6F6F6"/>
<rect x="24.876" y="118.871" width="3.75" height="3.75" fill="#F9E3E2"/>
<rect x="24.876" y="128.808" width="3.75" height="3.75" fill="#F9E3E2"/>
<rect x="24.876" y="108.934" width="3.75" height="3.75" fill="#F9E3E2"/>
<path d="M28.1215 77.6411H28.7176V84.5779H28.1215V77.6411ZM28.4699 83.9972C28.0363 83.9972 27.657 83.9198 27.3318 83.765C27.0118 83.605 26.7563 83.383 26.5654 83.0992C26.3795 82.8101 26.2712 82.4772 26.2402 82.1004L27.0995 82.0463C27.1357 82.3043 27.2105 82.5237 27.3241 82.7043C27.4376 82.8798 27.5899 83.014 27.7808 83.1069C27.977 83.1946 28.2118 83.2385 28.4854 83.2385C28.8466 83.2385 29.1228 83.1714 29.3137 83.0372C29.5099 82.8979 29.6079 82.7017 29.6079 82.4488C29.6079 82.2837 29.5692 82.1417 29.4918 82.023C29.4144 81.9043 29.2699 81.7959 29.0583 81.6979C28.8518 81.5998 28.5499 81.5017 28.1524 81.4037C27.6983 81.2953 27.3421 81.1766 27.0841 81.0475C26.8312 80.9185 26.6454 80.7585 26.5266 80.5675C26.4131 80.3766 26.3563 80.1366 26.3563 79.8475C26.3563 79.5379 26.4312 79.2617 26.5808 79.0192C26.7357 78.7766 26.955 78.5882 27.2389 78.454C27.5279 78.3198 27.8686 78.2527 28.2608 78.2527C28.6686 78.2527 29.0221 78.3301 29.3215 78.485C29.6208 78.6346 29.8583 78.8437 30.0337 79.1121C30.2092 79.3804 30.3176 79.6901 30.3589 80.0411L29.5073 80.0875C29.4763 79.8759 29.4092 79.6901 29.306 79.5301C29.2028 79.365 29.0608 79.2385 28.8802 79.1508C28.7047 79.0579 28.4931 79.0114 28.2454 79.0114C27.9305 79.0114 27.6802 79.0863 27.4944 79.2359C27.3086 79.3804 27.2157 79.574 27.2157 79.8166C27.2157 79.9766 27.2518 80.1082 27.3241 80.2114C27.4015 80.3146 27.5331 80.405 27.7189 80.4824C27.9047 80.5598 28.1834 80.6424 28.555 80.7301C29.0247 80.8385 29.3989 80.9701 29.6776 81.125C29.9615 81.2798 30.1628 81.463 30.2815 81.6746C30.4054 81.8811 30.4673 82.1237 30.4673 82.4024C30.4673 82.7224 30.3821 83.0037 30.2118 83.2463C30.0466 83.4837 29.8118 83.6695 29.5073 83.8037C29.2079 83.9327 28.8621 83.9972 28.4699 83.9972ZM32.2882 79.9559H31.1269V79.2824H31.5992C31.8108 79.2824 31.9785 79.2566 32.1024 79.205C32.2314 79.1482 32.3243 79.0553 32.3811 78.9263C32.4379 78.7921 32.4663 78.6088 32.4663 78.3766H33.1243V83.8734H32.2882V79.9559ZM34.3419 83.8734C34.3419 83.445 34.4039 83.0708 34.5277 82.7508C34.6568 82.4308 34.871 82.134 35.1703 81.8604C35.4697 81.5817 35.88 81.303 36.4013 81.0243C36.6697 80.885 36.8761 80.7611 37.0207 80.6527C37.1652 80.5443 37.271 80.4334 37.3381 80.3198C37.4052 80.2011 37.4387 80.0566 37.4387 79.8863C37.4387 79.623 37.3536 79.414 37.1832 79.2592C37.0129 79.0992 36.7677 79.0192 36.4477 79.0192C36.1019 79.0192 35.8258 79.1121 35.6194 79.2979C35.4129 79.4837 35.2839 79.7546 35.2323 80.1108L34.3652 80.0566C34.4271 79.494 34.6387 79.0527 35 78.7327C35.3613 78.4127 35.8439 78.2527 36.4477 78.2527C36.8348 78.2527 37.1677 78.3224 37.4465 78.4617C37.7252 78.5959 37.9368 78.7843 38.0813 79.0269C38.231 79.2695 38.3058 79.5508 38.3058 79.8708C38.3058 80.1546 38.2594 80.3946 38.1665 80.5908C38.0736 80.7869 37.9213 80.9727 37.7097 81.1482C37.5032 81.3185 37.2065 81.5043 36.8194 81.7056C36.36 81.9482 36.0039 82.1934 35.751 82.4411C35.5032 82.6888 35.3716 82.9108 35.3561 83.1069H38.3058V83.8734H34.3419Z" fill="black"/>
<path d="M40.6445 80.6451H41.0393L39.8974 83.9742H39.4987L40.6445 80.6451ZM41.4896 81.489H41.8651L41.8767 82L41.8303 81.9845C41.8535 81.8735 41.8935 81.778 41.9503 81.698C42.0096 81.6155 42.0819 81.5522 42.1671 81.5084C42.2522 81.4645 42.3451 81.4426 42.4458 81.4426C42.6213 81.4426 42.7645 81.4916 42.8754 81.5897C42.9864 81.6877 43.0561 81.8245 43.0845 82H43.0187C43.0522 81.8219 43.1232 81.6851 43.2316 81.5897C43.34 81.4916 43.4793 81.4426 43.6496 81.4426C43.7916 81.4426 43.9142 81.4735 44.0174 81.5355C44.1206 81.5948 44.198 81.6826 44.2496 81.7987C44.3038 81.9148 44.3309 82.0568 44.3309 82.2245V83.5484H43.9206V82.3251C43.9206 82.1445 43.8884 82.0103 43.8238 81.9226C43.7593 81.8322 43.6613 81.7871 43.5296 81.7871C43.4445 81.7871 43.3696 81.809 43.3051 81.8529C43.2406 81.8968 43.1903 81.9613 43.1542 82.0464C43.1206 82.129 43.1038 82.2271 43.1038 82.3406V83.5484H42.7129V82.3406C42.7129 82.16 42.6819 82.0232 42.62 81.9303C42.5606 81.8348 42.4638 81.7871 42.3296 81.7871C42.2419 81.7871 42.1658 81.809 42.1013 81.8529C42.0367 81.8968 41.9864 81.9613 41.9503 82.0464C41.9167 82.129 41.9 82.2271 41.9 82.3406V83.5484H41.4896V81.489ZM45.6823 83.5948C45.4861 83.5948 45.3145 83.551 45.1674 83.4632C45.0203 83.3755 44.9055 83.2503 44.8229 83.0877C44.7429 82.9251 44.7029 82.7355 44.7029 82.5187C44.7029 82.3019 44.7429 82.1122 44.8229 81.9497C44.9055 81.7871 45.0203 81.6619 45.1674 81.5742C45.3145 81.4864 45.4861 81.4426 45.6823 81.4426C45.8758 81.4426 46.0461 81.4864 46.1932 81.5742C46.3403 81.6619 46.4539 81.7871 46.5339 81.9497C46.6165 82.1122 46.6577 82.3019 46.6577 82.5187C46.6577 82.7355 46.6165 82.9251 46.5339 83.0877C46.4539 83.2503 46.3403 83.3755 46.1932 83.4632C46.0461 83.551 45.8758 83.5948 45.6823 83.5948ZM45.6823 83.2387C45.8552 83.2387 45.9894 83.1755 46.0848 83.049C46.1829 82.92 46.2319 82.7432 46.2319 82.5187C46.2319 82.2942 46.1829 82.1187 46.0848 81.9922C45.9894 81.8632 45.8552 81.7987 45.6823 81.7987C45.5094 81.7987 45.3739 81.8619 45.2758 81.9884C45.1777 82.1148 45.1287 82.2916 45.1287 82.5187C45.1287 82.7458 45.1777 82.9226 45.2758 83.049C45.3739 83.1755 45.5094 83.2387 45.6823 83.2387ZM47.0561 81.489H47.4316L47.4471 82.0387L47.3968 82.0116C47.4303 81.8206 47.5064 81.6787 47.6252 81.5858C47.7464 81.4903 47.8935 81.4426 48.0664 81.4426C48.2884 81.4426 48.46 81.5148 48.5813 81.6593C48.7026 81.8013 48.7632 81.9897 48.7632 82.2245V83.5484H48.3529V82.3484C48.3529 82.1626 48.3219 82.0232 48.26 81.9303C48.1981 81.8348 48.0961 81.7871 47.9542 81.7871C47.8045 81.7871 47.6858 81.8361 47.5981 81.9342C47.5103 82.0322 47.4664 82.1703 47.4664 82.3484V83.5484H47.0561V81.489ZM49.9769 83.5484C49.7808 83.5484 49.6363 83.5032 49.5434 83.4129C49.4505 83.3226 49.404 83.1819 49.404 82.991V81.0051H49.8144V82.96C49.8144 83.0529 49.8337 83.1187 49.8724 83.1574C49.9137 83.1935 49.9782 83.2116 50.066 83.2116H50.3602V83.5484H49.9769ZM49.0905 81.489H50.3602V81.8258H49.0905V81.489ZM50.7438 80.8H51.1541V81.9535L51.1038 81.9458C51.1374 81.778 51.2122 81.6529 51.3283 81.5703C51.4445 81.4851 51.5877 81.4426 51.758 81.4426C51.9774 81.4426 52.1477 81.5135 52.269 81.6555C52.3903 81.7974 52.4509 81.9871 52.4509 82.2245V83.5484H52.0406V82.3329C52.0406 82.1497 52.0083 82.0129 51.9438 81.9226C51.8793 81.8322 51.7812 81.7871 51.6496 81.7871C51.4948 81.7871 51.3735 81.8361 51.2858 81.9342C51.198 82.0297 51.1541 82.1651 51.1541 82.3406V83.5484H50.7438V80.8Z" fill="black"/>
<rect x="99.373" y="91.9507" width="59.85" height="8.85937" rx="3.15" fill="#FE5179"/>
<rect x="99.373" y="60.4507" width="58.0781" height="4.725" rx="2.3625" fill="#F6F6F6"/>
<rect x="99.373" y="51.7882" width="23.625" height="4.725" rx="2.3625" fill="#F9E3E2"/>
<rect x="94.677" y="47.6827" width="70.0296" height="100.939" rx="2.13669" stroke="#FD899E" stroke-width="0.451613"/>
<rect x="105.279" y="109.866" width="32.0906" height="3.15" rx="1.575" fill="#F6F6F6"/>
<rect x="105.279" y="120.301" width="50.4" height="3.15" rx="1.575" fill="#F6F6F6"/>
<rect x="99.5713" y="119.907" width="3.9375" height="3.9375" fill="#F9E3E2"/>
<rect x="99.5713" y="109.473" width="3.9375" height="3.9375" fill="#F9E3E2"/>
<path d="M102.978 76.2155H103.604V83.4991H102.978V76.2155ZM103.344 82.8894C102.889 82.8894 102.491 82.8082 102.149 82.6456C101.813 82.4776 101.545 82.2445 101.344 81.9465C101.149 81.643 101.036 81.2934 101.003 80.8978L101.905 80.8409C101.943 81.1119 102.022 81.3422 102.141 81.5319C102.26 81.7162 102.42 81.8571 102.621 81.9546C102.827 82.0467 103.073 82.0928 103.36 82.0928C103.74 82.0928 104.03 82.0224 104.23 81.8814C104.436 81.7351 104.539 81.5292 104.539 81.2636C104.539 81.0902 104.499 80.9412 104.417 80.8165C104.336 80.6919 104.184 80.5781 103.962 80.4751C103.745 80.3722 103.428 80.2692 103.011 80.1662C102.534 80.0524 102.16 79.9278 101.889 79.7923C101.624 79.6568 101.428 79.4888 101.304 79.2883C101.185 79.0878 101.125 78.8358 101.125 78.5323C101.125 78.2071 101.204 77.9172 101.361 77.6625C101.523 77.4078 101.754 77.21 102.052 77.0691C102.355 76.9282 102.713 76.8577 103.125 76.8577C103.553 76.8577 103.924 76.939 104.238 77.1016C104.553 77.2587 104.802 77.4782 104.986 77.76C105.171 78.0418 105.284 78.367 105.328 78.7355L104.434 78.7843C104.401 78.5621 104.331 78.367 104.222 78.199C104.114 78.0256 103.965 77.8928 103.775 77.8007C103.591 77.7031 103.369 77.6544 103.108 77.6544C102.778 77.6544 102.515 77.7329 102.32 77.8901C102.125 78.0418 102.027 78.2451 102.027 78.4998C102.027 78.6678 102.065 78.806 102.141 78.9144C102.222 79.0227 102.361 79.1176 102.556 79.1989C102.751 79.2802 103.043 79.3669 103.434 79.459C103.927 79.5728 104.32 79.711 104.612 79.8736C104.91 80.0362 105.122 80.2285 105.246 80.4507C105.376 80.6675 105.442 80.9222 105.442 81.2149C105.442 81.5509 105.352 81.8462 105.173 82.1009C105 82.3502 104.753 82.5453 104.434 82.6862C104.119 82.8217 103.756 82.8894 103.344 82.8894ZM106.297 82.7594C106.297 82.3096 106.362 81.9167 106.492 81.5807C106.627 81.2447 106.852 80.9331 107.167 80.6458C107.481 80.3532 107.912 80.0605 108.459 79.7679C108.741 79.6216 108.958 79.4915 109.109 79.3777C109.261 79.2639 109.372 79.1474 109.443 79.0282C109.513 78.9035 109.548 78.7518 109.548 78.5729C109.548 78.2965 109.459 78.0771 109.28 77.9145C109.101 77.7465 108.844 77.6625 108.508 77.6625C108.145 77.6625 107.855 77.76 107.638 77.9551C107.421 78.1502 107.286 78.4347 107.232 78.8087L106.321 78.7518C106.386 78.1611 106.608 77.6977 106.988 77.3617C107.367 77.0257 107.874 76.8577 108.508 76.8577C108.914 76.8577 109.264 76.9309 109.556 77.0772C109.849 77.2181 110.071 77.4159 110.223 77.6706C110.38 77.9253 110.459 78.2207 110.459 78.5567C110.459 78.8547 110.41 79.1067 110.312 79.3127C110.215 79.5186 110.055 79.7137 109.833 79.898C109.616 80.0768 109.304 80.2719 108.898 80.4833C108.416 80.738 108.042 80.9954 107.776 81.2555C107.516 81.5156 107.378 81.7487 107.362 81.9546H110.459V82.7594H106.297ZM113.278 82.8894C112.791 82.8894 112.387 82.7729 112.067 82.5399C111.753 82.3069 111.539 81.9871 111.425 81.5807L112.311 81.5238C112.376 81.708 112.487 81.8489 112.644 81.9465C112.807 82.044 113.018 82.0928 113.278 82.0928C113.739 82.0928 114.086 81.9113 114.319 81.5482C114.552 81.1851 114.671 80.6079 114.677 79.8167L114.839 79.8573C114.698 80.1987 114.492 80.4589 114.221 80.6377C113.95 80.8165 113.631 80.906 113.262 80.906C112.888 80.906 112.555 80.8247 112.262 80.6621C111.97 80.4941 111.742 80.2611 111.579 79.963C111.422 79.6595 111.344 79.3127 111.344 78.9225C111.344 78.5052 111.43 78.1421 111.604 77.8332C111.777 77.5189 112.018 77.2777 112.327 77.1097C112.642 76.9417 112.999 76.8577 113.4 76.8577C114.127 76.8577 114.668 77.0962 115.026 77.5731C115.384 78.0445 115.563 78.7138 115.563 79.5809C115.563 80.6214 115.381 81.4344 115.018 82.0196C114.66 82.5995 114.08 82.8894 113.278 82.8894ZM113.384 80.15C113.628 80.15 113.842 80.1012 114.026 80.0036C114.211 79.9061 114.354 79.7652 114.457 79.5809C114.56 79.3967 114.612 79.1772 114.612 78.9225C114.612 78.6732 114.563 78.4537 114.465 78.264C114.373 78.0689 114.235 77.9172 114.051 77.8088C113.872 77.695 113.66 77.6381 113.417 77.6381C113.178 77.6381 112.97 77.6923 112.791 77.8007C112.612 77.9091 112.474 78.0608 112.376 78.2559C112.284 78.4456 112.238 78.6651 112.238 78.9144C112.238 79.1636 112.284 79.3831 112.376 79.5728C112.474 79.7571 112.609 79.9007 112.783 80.0036C112.956 80.1012 113.156 80.15 113.384 80.15Z" fill="black"/>
<path d="M118.128 79.2096H118.542L117.343 82.7051H116.925L118.128 79.2096ZM119.015 80.0957H119.41L119.422 80.6322L119.373 80.616C119.397 80.4994 119.439 80.3992 119.499 80.3152C119.561 80.2285 119.637 80.1621 119.727 80.116C119.816 80.07 119.914 80.0469 120.019 80.0469C120.203 80.0469 120.354 80.0984 120.47 80.2014C120.587 80.3043 120.66 80.448 120.69 80.6322H120.621C120.656 80.4453 120.731 80.3016 120.844 80.2014C120.958 80.0984 121.104 80.0469 121.283 80.0469C121.432 80.0469 121.561 80.0794 121.669 80.1445C121.778 80.2068 121.859 80.2989 121.913 80.4209C121.97 80.5428 121.999 80.6918 121.999 80.868V82.258H121.568V80.9736C121.568 80.784 121.534 80.6431 121.466 80.5509C121.398 80.4561 121.295 80.4087 121.157 80.4087C121.068 80.4087 120.989 80.4317 120.922 80.4778C120.854 80.5238 120.801 80.5916 120.763 80.681C120.728 80.7677 120.71 80.8707 120.71 80.9899V82.258H120.3V80.9899C120.3 80.8002 120.267 80.6566 120.202 80.5591C120.14 80.4588 120.038 80.4087 119.897 80.4087C119.805 80.4087 119.725 80.4317 119.657 80.4778C119.59 80.5238 119.537 80.5916 119.499 80.681C119.464 80.7677 119.446 80.8707 119.446 80.9899V82.258H119.015V80.0957ZM123.418 82.3068C123.212 82.3068 123.031 82.2607 122.877 82.1686C122.723 82.0765 122.602 81.9451 122.515 81.7743C122.431 81.6036 122.389 81.4045 122.389 81.1769C122.389 80.9493 122.431 80.7501 122.515 80.5794C122.602 80.4087 122.723 80.2773 122.877 80.1851C123.031 80.093 123.212 80.0469 123.418 80.0469C123.621 80.0469 123.8 80.093 123.954 80.1851C124.109 80.2773 124.228 80.4087 124.312 80.5794C124.398 80.7501 124.442 80.9493 124.442 81.1769C124.442 81.4045 124.398 81.6036 124.312 81.7743C124.228 81.9451 124.109 82.0765 123.954 82.1686C123.8 82.2607 123.621 82.3068 123.418 82.3068ZM123.418 81.9329C123.599 81.9329 123.74 81.8665 123.84 81.7337C123.943 81.5982 123.995 81.4126 123.995 81.1769C123.995 80.9411 123.943 80.7569 123.84 80.6241C123.74 80.4886 123.599 80.4209 123.418 80.4209C123.236 80.4209 123.094 80.4873 122.991 80.62C122.888 80.7528 122.836 80.9384 122.836 81.1769C122.836 81.4153 122.888 81.6009 122.991 81.7337C123.094 81.8665 123.236 81.9329 123.418 81.9329ZM124.86 80.0957H125.254L125.271 80.6729L125.218 80.6444C125.253 80.4439 125.333 80.2949 125.458 80.1973C125.585 80.0971 125.739 80.0469 125.921 80.0469C126.154 80.0469 126.334 80.1228 126.462 80.2745C126.589 80.4236 126.653 80.6214 126.653 80.868V82.258H126.222V80.998C126.222 80.8029 126.189 80.6566 126.124 80.5591C126.059 80.4588 125.952 80.4087 125.803 80.4087C125.646 80.4087 125.521 80.4602 125.429 80.5631C125.337 80.6661 125.291 80.8111 125.291 80.998V82.258H124.86V80.0957ZM127.927 82.258C127.721 82.258 127.569 82.2106 127.472 82.1158C127.374 82.0209 127.325 81.8733 127.325 81.6727V79.5876H127.756V81.6402C127.756 81.7378 127.777 81.8069 127.817 81.8475C127.861 81.8854 127.928 81.9044 128.02 81.9044H128.329V82.258H127.927ZM126.996 80.0957H128.329V80.4493H126.996V80.0957ZM128.732 79.3722H129.163V80.5834L129.11 80.5753C129.145 80.3992 129.224 80.2678 129.346 80.1811C129.468 80.0916 129.618 80.0469 129.797 80.0469C130.027 80.0469 130.206 80.1214 130.334 80.2705C130.461 80.4195 130.525 80.6187 130.525 80.868V82.258H130.094V80.9818C130.094 80.7894 130.06 80.6458 129.992 80.5509C129.924 80.4561 129.821 80.4087 129.683 80.4087C129.521 80.4087 129.393 80.4602 129.301 80.5631C129.209 80.6634 129.163 80.8056 129.163 80.9899V82.258H128.732V79.3722Z" fill="black"/>
<rect x="176.945" y="91.6009" width="57" height="8.4375" rx="3" fill="#FE5179"/>
<rect x="176.945" y="61.6008" width="55.3125" height="4.5" rx="2.25" fill="#F6F6F6"/>
<rect x="176.945" y="53.3509" width="22.5" height="4.5" rx="2.25" fill="#F9E3E2"/>
<rect x="172.352" y="49.3195" width="66.9375" height="96.375" rx="2.15625" stroke="#F6F6F6" stroke-width="0.1875"/>
<rect x="182.57" y="108.663" width="30.5625" height="3" rx="1.5" fill="#F6F6F6"/>
<rect x="182.57" y="118.601" width="48" height="3" rx="1.5" fill="#F6F6F6"/>
<rect x="182.57" y="128.538" width="38.25" height="3" rx="1.5" fill="#F6F6F6"/>
<rect x="177.134" y="118.226" width="3.75" height="3.75" fill="#F9E3E2"/>
<rect x="177.134" y="128.163" width="3.75" height="3.75" fill="#F9E3E2"/>
<rect x="177.134" y="108.288" width="3.75" height="3.75" fill="#F9E3E2"/>
<path d="M180.379 76.996H180.975V83.9328H180.379V76.996ZM180.728 83.3521C180.294 83.3521 179.915 83.2747 179.59 83.1199C179.27 82.9599 179.014 82.7379 178.823 82.454C178.637 82.165 178.529 81.8321 178.498 81.4553L179.357 81.4011C179.393 81.6592 179.468 81.8786 179.582 82.0592C179.695 82.2347 179.848 82.3689 180.039 82.4618C180.235 82.5495 180.47 82.5934 180.743 82.5934C181.104 82.5934 181.381 82.5263 181.572 82.3921C181.768 82.2528 181.866 82.0566 181.866 81.8037C181.866 81.6386 181.827 81.4966 181.75 81.3779C181.672 81.2592 181.528 81.1508 181.316 81.0528C181.11 80.9547 180.808 80.8566 180.41 80.7586C179.956 80.6502 179.6 80.5315 179.342 80.4024C179.089 80.2734 178.903 80.1134 178.784 79.9224C178.671 79.7315 178.614 79.4915 178.614 79.2024C178.614 78.8928 178.689 78.6166 178.839 78.374C178.993 78.1315 179.213 77.9431 179.497 77.8089C179.786 77.6747 180.126 77.6076 180.519 77.6076C180.926 77.6076 181.28 77.685 181.579 77.8399C181.879 77.9895 182.116 78.1986 182.292 78.467C182.467 78.7353 182.575 79.045 182.617 79.396L181.765 79.4424C181.734 79.2308 181.667 79.045 181.564 78.885C181.461 78.7199 181.319 78.5934 181.138 78.5057C180.963 78.4128 180.751 78.3663 180.503 78.3663C180.188 78.3663 179.938 78.4411 179.752 78.5908C179.566 78.7353 179.473 78.9289 179.473 79.1715C179.473 79.3315 179.51 79.4631 179.582 79.5663C179.659 79.6695 179.791 79.7599 179.977 79.8373C180.163 79.9147 180.441 79.9973 180.813 80.085C181.283 80.1934 181.657 80.325 181.935 80.4799C182.219 80.6347 182.421 80.8179 182.539 81.0295C182.663 81.236 182.725 81.4786 182.725 81.7573C182.725 82.0773 182.64 82.3586 182.47 82.6011C182.304 82.8386 182.07 83.0244 181.765 83.1586C181.466 83.2876 181.12 83.3521 180.728 83.3521ZM183.54 83.2282C183.54 82.7999 183.602 82.4257 183.725 82.1057C183.854 81.7857 184.069 81.4889 184.368 81.2153C184.667 80.9366 185.078 80.6579 185.599 80.3792C185.867 80.2399 186.074 80.116 186.218 80.0076C186.363 79.8992 186.469 79.7882 186.536 79.6747C186.603 79.556 186.636 79.4115 186.636 79.2411C186.636 78.9779 186.551 78.7689 186.381 78.614C186.211 78.454 185.965 78.374 185.645 78.374C185.3 78.374 185.023 78.467 184.817 78.6528C184.611 78.8386 184.482 79.1095 184.43 79.4657L183.563 79.4115C183.625 78.8489 183.836 78.4076 184.198 78.0876C184.559 77.7676 185.042 77.6076 185.645 77.6076C186.032 77.6076 186.365 77.6773 186.644 77.8166C186.923 77.9508 187.134 78.1392 187.279 78.3818C187.429 78.6244 187.503 78.9057 187.503 79.2257C187.503 79.5095 187.457 79.7495 187.364 79.9457C187.271 80.1418 187.119 80.3276 186.907 80.5031C186.701 80.6734 186.404 80.8592 186.017 81.0605C185.558 81.3031 185.202 81.5482 184.949 81.796C184.701 82.0437 184.569 82.2657 184.554 82.4618H187.503V83.2282H183.54ZM190.189 83.3521C189.724 83.3521 189.34 83.2411 189.035 83.0192C188.736 82.7973 188.532 82.4928 188.424 82.1057L189.268 82.0515C189.329 82.227 189.435 82.3611 189.585 82.454C189.74 82.547 189.941 82.5934 190.189 82.5934C190.628 82.5934 190.958 82.4205 191.18 82.0747C191.402 81.7289 191.515 81.1792 191.52 80.4257L191.675 80.4644C191.541 80.7895 191.345 81.0373 191.087 81.2076C190.829 81.3779 190.524 81.4631 190.173 81.4631C189.817 81.4631 189.5 81.3857 189.221 81.2308C188.942 81.0708 188.726 80.8489 188.571 80.565C188.421 80.276 188.346 79.9457 188.346 79.574C188.346 79.1766 188.429 78.8308 188.594 78.5366C188.759 78.2373 188.989 78.0076 189.283 77.8476C189.582 77.6876 189.923 77.6076 190.305 77.6076C190.997 77.6076 191.513 77.8347 191.853 78.2889C192.194 78.7379 192.364 79.3753 192.364 80.2011C192.364 81.1921 192.191 81.9663 191.846 82.5237C191.505 83.076 190.953 83.3521 190.189 83.3521ZM190.289 80.7431C190.522 80.7431 190.726 80.6966 190.901 80.6037C191.077 80.5108 191.213 80.3766 191.311 80.2011C191.409 80.0257 191.458 79.8166 191.458 79.574C191.458 79.3366 191.412 79.1276 191.319 78.947C191.231 78.7611 191.1 78.6166 190.924 78.5134C190.754 78.405 190.553 78.3508 190.32 78.3508C190.093 78.3508 189.895 78.4024 189.724 78.5057C189.554 78.6089 189.422 78.7534 189.329 78.9392C189.242 79.1199 189.198 79.3289 189.198 79.5663C189.198 79.8037 189.242 80.0128 189.329 80.1934C189.422 80.3689 189.551 80.5057 189.717 80.6037C189.882 80.6966 190.073 80.7431 190.289 80.7431ZM195.048 83.3521C194.584 83.3521 194.199 83.2411 193.895 83.0192C193.595 82.7973 193.392 82.4928 193.283 82.1057L194.127 82.0515C194.189 82.227 194.295 82.3611 194.445 82.454C194.599 82.547 194.801 82.5934 195.048 82.5934C195.487 82.5934 195.817 82.4205 196.039 82.0747C196.261 81.7289 196.375 81.1792 196.38 80.4257L196.535 80.4644C196.401 80.7895 196.205 81.0373 195.946 81.2076C195.688 81.3779 195.384 81.4631 195.033 81.4631C194.677 81.4631 194.359 81.3857 194.081 81.2308C193.802 81.0708 193.585 80.8489 193.43 80.565C193.281 80.276 193.206 79.9457 193.206 79.574C193.206 79.1766 193.288 78.8308 193.454 78.5366C193.619 78.2373 193.848 78.0076 194.143 77.8476C194.442 77.6876 194.783 77.6076 195.165 77.6076C195.856 77.6076 196.372 77.8347 196.713 78.2889C197.054 78.7379 197.224 79.3753 197.224 80.2011C197.224 81.1921 197.051 81.9663 196.705 82.5237C196.365 83.076 195.812 83.3521 195.048 83.3521ZM195.149 80.7431C195.381 80.7431 195.585 80.6966 195.761 80.6037C195.936 80.5108 196.073 80.3766 196.171 80.2011C196.269 80.0257 196.318 79.8166 196.318 79.574C196.318 79.3366 196.272 79.1276 196.179 78.947C196.091 78.7611 195.959 78.6166 195.784 78.5134C195.614 78.405 195.412 78.3508 195.18 78.3508C194.953 78.3508 194.754 78.4024 194.584 78.5057C194.414 78.6089 194.282 78.7534 194.189 78.9392C194.101 79.1199 194.057 79.3289 194.057 79.5663C194.057 79.8037 194.101 80.0128 194.189 80.1934C194.282 80.3689 194.411 80.5057 194.576 80.6037C194.741 80.6966 194.932 80.7431 195.149 80.7431Z" fill="black"/>
<path d="M199.353 80H199.748L198.606 83.3291H198.208L199.353 80ZM200.199 80.8439H200.574L200.586 81.3549L200.539 81.3394C200.562 81.2284 200.602 81.1329 200.659 81.0529C200.719 80.9704 200.791 80.9071 200.876 80.8633C200.961 80.8194 201.054 80.7975 201.155 80.7975C201.33 80.7975 201.473 80.8465 201.584 80.9445C201.695 81.0426 201.765 81.1794 201.793 81.3549H201.728C201.761 81.1768 201.832 81.04 201.941 80.9445C202.049 80.8465 202.188 80.7975 202.359 80.7975C202.501 80.7975 202.623 80.8284 202.726 80.8904C202.83 80.9497 202.907 81.0375 202.959 81.1536C203.013 81.2697 203.04 81.4116 203.04 81.5794V82.9033H202.63V81.68C202.63 81.4994 202.597 81.3652 202.533 81.2775C202.468 81.1871 202.37 81.142 202.239 81.142C202.153 81.142 202.079 81.1639 202.014 81.2078C201.95 81.2516 201.899 81.3162 201.863 81.4013C201.83 81.4839 201.813 81.582 201.813 81.6955V82.9033H201.422V81.6955C201.422 81.5149 201.391 81.3781 201.329 81.2852C201.27 81.1897 201.173 81.142 201.039 81.142C200.951 81.142 200.875 81.1639 200.81 81.2078C200.746 81.2516 200.695 81.3162 200.659 81.4013C200.626 81.4839 200.609 81.582 200.609 81.6955V82.9033H200.199V80.8439ZM204.391 82.9497C204.195 82.9497 204.024 82.9058 203.876 82.8181C203.729 82.7304 203.614 82.6052 203.532 82.4426C203.452 82.28 203.412 82.0904 203.412 81.8736C203.412 81.6568 203.452 81.4671 203.532 81.3045C203.614 81.142 203.729 81.0168 203.876 80.9291C204.024 80.8413 204.195 80.7975 204.391 80.7975C204.585 80.7975 204.755 80.8413 204.902 80.9291C205.049 81.0168 205.163 81.142 205.243 81.3045C205.325 81.4671 205.367 81.6568 205.367 81.8736C205.367 82.0904 205.325 82.28 205.243 82.4426C205.163 82.6052 205.049 82.7304 204.902 82.8181C204.755 82.9058 204.585 82.9497 204.391 82.9497ZM204.391 82.5936C204.564 82.5936 204.698 82.5304 204.794 82.4039C204.892 82.2749 204.941 82.0981 204.941 81.8736C204.941 81.6491 204.892 81.4736 204.794 81.3471C204.698 81.2181 204.564 81.1536 204.391 81.1536C204.218 81.1536 204.083 81.2168 203.985 81.3433C203.887 81.4697 203.838 81.6465 203.838 81.8736C203.838 82.1007 203.887 82.2775 203.985 82.4039C204.083 82.5304 204.218 82.5936 204.391 82.5936ZM205.765 80.8439H206.141L206.156 81.3936L206.106 81.3665C206.139 81.1755 206.215 81.0336 206.334 80.9407C206.455 80.8452 206.603 80.7975 206.775 80.7975C206.997 80.7975 207.169 80.8697 207.29 81.0142C207.412 81.1562 207.472 81.3445 207.472 81.5794V82.9033H207.062V81.7033C207.062 81.5175 207.031 81.3781 206.969 81.2852C206.907 81.1897 206.805 81.142 206.663 81.142C206.513 81.142 206.395 81.191 206.307 81.2891C206.219 81.3871 206.175 81.5252 206.175 81.7033V82.9033H205.765V80.8439ZM208.686 82.9033C208.49 82.9033 208.345 82.8581 208.252 82.7678C208.159 82.6775 208.113 82.5368 208.113 82.3458V80.36H208.523V82.3149C208.523 82.4078 208.543 82.4736 208.581 82.5123C208.623 82.5484 208.687 82.5665 208.775 82.5665H209.069V82.9033H208.686ZM207.799 80.8439H209.069V81.1807H207.799V80.8439ZM209.453 80.1549H209.863V81.3084L209.813 81.3007C209.846 81.1329 209.921 81.0078 210.037 80.9252C210.153 80.84 210.297 80.7975 210.467 80.7975C210.686 80.7975 210.857 80.8684 210.978 81.0104C211.099 81.1523 211.16 81.342 211.16 81.5794V82.9033H210.75V81.6878C210.75 81.5045 210.717 81.3678 210.653 81.2775C210.588 81.1871 210.49 81.142 210.359 81.142C210.204 81.142 210.082 81.191 209.995 81.2891C209.907 81.3845 209.863 81.52 209.863 81.6955V82.9033H209.453V80.1549Z" fill="black"/>
<path d="M67.2289 26.0065H71.3928V26.9006H67.6896L68.2044 26.3677V29.3123L67.6896 28.8516H71.2302V29.7187H67.6896L68.2044 29.2581V32.4194H67.2289V26.0065ZM73.7748 32.5277C73.2751 32.5277 72.8746 32.4133 72.5735 32.1845C72.2785 31.9497 72.131 31.6275 72.131 31.2181C72.131 30.8086 72.2544 30.4865 72.5013 30.2516C72.7482 30.0168 73.1366 29.8482 73.6665 29.7458L75.3194 29.4297C75.3194 29.0563 75.232 28.7794 75.0574 28.5987C74.8888 28.412 74.6329 28.3187 74.2897 28.3187C73.9886 28.3187 73.7477 28.388 73.5671 28.5265C73.3865 28.6589 73.266 28.8576 73.2058 29.1226L72.2123 29.0594C72.3026 28.5716 72.5284 28.1923 72.8897 27.9213C73.257 27.6443 73.7237 27.5058 74.2897 27.5058C74.934 27.5058 75.4247 27.6774 75.7619 28.0206C76.1052 28.3639 76.2768 28.8516 76.2768 29.4839V31.3536C76.2768 31.468 76.2978 31.5492 76.34 31.5974C76.3822 31.6396 76.4484 31.6606 76.5387 31.6606H76.7103V32.4194C76.6682 32.4254 76.614 32.4314 76.5477 32.4374C76.4875 32.4434 76.4243 32.4465 76.3581 32.4465C76.0269 32.4465 75.78 32.3682 75.6174 32.2116C75.4609 32.049 75.3826 31.7781 75.3826 31.3987L75.4819 31.4439C75.4157 31.757 75.223 32.0159 74.9039 32.2206C74.5847 32.4254 74.2084 32.5277 73.7748 32.5277ZM73.9374 31.769C74.2204 31.769 74.4643 31.7148 74.669 31.6065C74.8798 31.492 75.0394 31.3355 75.1477 31.1368C75.2622 30.9381 75.3194 30.7123 75.3194 30.4594V30.1523L73.9194 30.4232C73.6363 30.4774 73.4316 30.5617 73.3052 30.6761C73.1847 30.7905 73.1245 30.9411 73.1245 31.1277C73.1245 31.3325 73.1938 31.492 73.3323 31.6065C73.4768 31.7148 73.6785 31.769 73.9374 31.769ZM77.5953 27.6142H78.5528V32.4194H77.5953V27.6142ZM77.5773 25.9613H78.5799V26.9187H77.5773V25.9613ZM79.6925 27.6142H80.5686L80.6048 28.8877L80.5235 28.8606C80.5897 28.4331 80.7222 28.12 80.9209 27.9213C81.1196 27.7166 81.3936 27.6142 81.7428 27.6142H82.2035V28.4723H81.7428C81.496 28.4723 81.2912 28.5144 81.1286 28.5987C80.9721 28.677 80.8517 28.7974 80.7674 28.96C80.6891 29.1226 80.6499 29.3303 80.6499 29.5832V32.4194H79.6925V27.6142ZM85.2893 27.6142H86.1926L86.2197 28.6439L86.1113 28.5897C86.2257 28.2404 86.4214 27.9725 86.6984 27.7858C86.9754 27.5991 87.2975 27.5058 87.6648 27.5058C88.1164 27.5058 88.4958 27.6172 88.8029 27.84C89.116 28.0628 89.3478 28.3669 89.4984 28.7523C89.6489 29.1316 89.7242 29.5531 89.7242 30.0168C89.7242 30.4804 89.6489 30.9049 89.4984 31.2903C89.3478 31.6697 89.116 31.9708 88.8029 32.1936C88.4958 32.4163 88.1164 32.5277 87.6648 32.5277C87.424 32.5277 87.1982 32.4856 86.9874 32.4013C86.7767 32.317 86.596 32.1966 86.4455 32.04C86.301 31.8834 86.1986 31.7028 86.1384 31.4981L86.2468 31.3897V33.7742H85.2893V27.6142ZM87.4932 31.6968C87.8786 31.6968 88.1797 31.5492 88.3964 31.2542C88.6192 30.9591 88.7306 30.5467 88.7306 30.0168C88.7306 29.4869 88.6192 29.0744 88.3964 28.7794C88.1797 28.4843 87.8786 28.3368 87.4932 28.3368C87.2403 28.3368 87.0175 28.4 86.8248 28.5265C86.6382 28.6529 86.4936 28.8426 86.3913 29.0955C86.2949 29.3424 86.2468 29.6495 86.2468 30.0168C86.2468 30.3841 86.2949 30.6942 86.3913 30.9471C86.4936 31.194 86.6382 31.3806 86.8248 31.5071C87.0115 31.6336 87.2343 31.6968 87.4932 31.6968ZM90.659 27.6142H91.5351L91.5712 28.8877L91.4899 28.8606C91.5562 28.4331 91.6886 28.12 91.8873 27.9213C92.086 27.7166 92.36 27.6142 92.7093 27.6142H93.1699V28.4723H92.7093C92.4624 28.4723 92.2577 28.5144 92.0951 28.5987C91.9385 28.677 91.8181 28.7974 91.7338 28.96C91.6555 29.1226 91.6164 29.3303 91.6164 29.5832V32.4194H90.659V27.6142ZM94.0175 27.6142H94.9749V32.4194H94.0175V27.6142ZM93.9994 25.9613H95.002V26.9187H93.9994V25.9613ZM98.2345 32.5277C97.7768 32.5277 97.3764 32.4254 97.0332 32.2206C96.69 32.0159 96.422 31.7239 96.2293 31.3445C96.0426 30.9591 95.9493 30.5166 95.9493 30.0168C95.9493 29.517 96.0426 29.0774 96.2293 28.6981C96.422 28.3127 96.69 28.0176 97.0332 27.8129C97.3764 27.6082 97.7768 27.5058 98.2345 27.5058C98.6199 27.5058 98.9631 27.5751 99.2642 27.7136C99.5712 27.846 99.8211 28.0447 100.014 28.3097C100.207 28.5686 100.327 28.8817 100.375 29.249L99.3816 29.3032C99.3334 28.9961 99.2069 28.7583 99.0022 28.5897C98.7975 28.4211 98.5416 28.3368 98.2345 28.3368C97.831 28.3368 97.5149 28.4843 97.2861 28.7794C97.0573 29.0744 96.9429 29.4869 96.9429 30.0168C96.9429 30.5467 97.0573 30.9591 97.2861 31.2542C97.5149 31.5492 97.831 31.6968 98.2345 31.6968C98.5416 31.6968 98.7975 31.6095 99.0022 31.4348C99.2069 31.2602 99.3334 31.0013 99.3816 30.6581L100.375 30.7123C100.327 31.0796 100.207 31.3987 100.014 31.6697C99.8272 31.9406 99.5803 32.1514 99.2732 32.3019C98.9661 32.4525 98.6199 32.5277 98.2345 32.5277ZM101.114 27.6142H102.071V32.4194H101.114V27.6142ZM101.096 25.9613H102.098V26.9187H101.096V25.9613ZM103.211 27.6142H104.087L104.123 28.8968L104.006 28.8336C104.084 28.388 104.262 28.0568 104.539 27.84C104.822 27.6172 105.165 27.5058 105.568 27.5058C106.086 27.5058 106.487 27.6744 106.77 28.0116C107.053 28.3428 107.194 28.7824 107.194 29.3303V32.4194H106.237V29.6194C106.237 29.1858 106.165 28.8606 106.02 28.6439C105.875 28.4211 105.638 28.3097 105.306 28.3097C104.957 28.3097 104.68 28.4241 104.475 28.6529C104.271 28.8817 104.168 29.2039 104.168 29.6194V32.4194H103.211V27.6142ZM110.294 33.8826C109.92 33.8826 109.586 33.8254 109.291 33.711C109.002 33.5966 108.764 33.434 108.577 33.2232C108.391 33.0185 108.264 32.7776 108.198 32.5006L109.192 32.4374C109.258 32.6542 109.375 32.8168 109.544 32.9252C109.719 33.0336 109.968 33.0877 110.294 33.0877C110.697 33.0877 111.001 33.0034 111.206 32.8348C111.417 32.6662 111.522 32.4103 111.522 32.0671V31.3716C111.402 31.6185 111.215 31.8142 110.962 31.9587C110.715 32.1032 110.435 32.1755 110.122 32.1755C109.725 32.1755 109.369 32.0791 109.056 31.8865C108.743 31.6877 108.496 31.4138 108.316 31.0645C108.141 30.7092 108.054 30.3028 108.054 29.8452C108.054 29.3875 108.141 28.9841 108.316 28.6348C108.49 28.2796 108.731 28.0026 109.038 27.8039C109.345 27.6052 109.697 27.5058 110.095 27.5058C110.432 27.5058 110.73 27.5841 110.989 27.7406C111.254 27.8912 111.444 28.1019 111.558 28.3729V27.6142H112.488V32.04C112.488 32.6241 112.293 33.0757 111.901 33.3948C111.51 33.72 110.974 33.8826 110.294 33.8826ZM110.276 31.3626C110.528 31.3626 110.748 31.3024 110.935 31.1819C111.122 31.0555 111.266 30.8779 111.368 30.649C111.477 30.4202 111.531 30.1492 111.531 29.8361C111.531 29.529 111.48 29.2611 111.377 29.0323C111.281 28.8034 111.137 28.6288 110.944 28.5084C110.751 28.3819 110.528 28.3187 110.276 28.3187C109.896 28.3187 109.595 28.4572 109.372 28.7342C109.156 29.0052 109.047 29.3725 109.047 29.8361C109.047 30.3058 109.159 30.6791 109.381 30.9561C109.604 31.2271 109.902 31.3626 110.276 31.3626ZM113.973 32.4194H113.467V31.2813H114.641V32.2839L114.072 33.8374H113.521L113.973 32.4194ZM119.311 32.5277C118.823 32.5277 118.437 32.3682 118.154 32.049C117.871 31.7239 117.73 31.2753 117.73 30.7032V27.6142H118.687V30.4594C118.687 30.8929 118.763 31.212 118.913 31.4168C119.064 31.6215 119.293 31.7239 119.6 31.7239C119.949 31.7239 120.22 31.6125 120.413 31.3897C120.611 31.1609 120.711 30.8417 120.711 30.4323V27.6142H121.668V32.4194H120.774L120.756 31.1639L120.891 31.2181C120.807 31.6396 120.629 31.9647 120.358 32.1936C120.087 32.4163 119.738 32.5277 119.311 32.5277ZM122.932 27.6142H123.808L123.844 28.8968L123.727 28.8336C123.805 28.388 123.983 28.0568 124.26 27.84C124.543 27.6172 124.886 27.5058 125.289 27.5058C125.807 27.5058 126.208 27.6744 126.491 28.0116C126.774 28.3428 126.915 28.7824 126.915 29.3303V32.4194H125.958V29.6194C125.958 29.1858 125.886 28.8606 125.741 28.6439C125.596 28.4211 125.359 28.3097 125.027 28.3097C124.678 28.3097 124.401 28.4241 124.196 28.6529C123.992 28.8817 123.889 29.2039 123.889 29.6194V32.4194H122.932V27.6142ZM128.534 27.3071C128.534 26.8976 128.648 26.5785 128.877 26.3497C129.106 26.1209 129.452 26.0065 129.915 26.0065H130.764V26.7923H130.042C129.855 26.7923 129.717 26.8404 129.626 26.9368C129.536 27.0331 129.491 27.1746 129.491 27.3613V32.4194H128.534V27.3071ZM127.865 27.6774H130.692V28.4542H127.865V27.6774ZM132.892 32.5277C132.392 32.5277 131.991 32.4133 131.69 32.1845C131.395 31.9497 131.248 31.6275 131.248 31.2181C131.248 30.8086 131.371 30.4865 131.618 30.2516C131.865 30.0168 132.253 29.8482 132.783 29.7458L134.436 29.4297C134.436 29.0563 134.349 28.7794 134.174 28.5987C134.006 28.412 133.75 28.3187 133.407 28.3187C133.105 28.3187 132.865 28.388 132.684 28.5265C132.503 28.6589 132.383 28.8576 132.323 29.1226L131.329 29.0594C131.419 28.5716 131.645 28.1923 132.007 27.9213C132.374 27.6443 132.84 27.5058 133.407 27.5058C134.051 27.5058 134.542 27.6774 134.879 28.0206C135.222 28.3639 135.394 28.8516 135.394 29.4839V31.3536C135.394 31.468 135.415 31.5492 135.457 31.5974C135.499 31.6396 135.565 31.6606 135.656 31.6606H135.827V32.4194C135.785 32.4254 135.731 32.4314 135.665 32.4374C135.604 32.4434 135.541 32.4465 135.475 32.4465C135.144 32.4465 134.897 32.3682 134.734 32.2116C134.578 32.049 134.499 31.7781 134.499 31.3987L134.599 31.4439C134.533 31.757 134.34 32.0159 134.021 32.2206C133.702 32.4254 133.325 32.5277 132.892 32.5277ZM133.054 31.769C133.337 31.769 133.581 31.7148 133.786 31.6065C133.997 31.492 134.156 31.3355 134.265 31.1368C134.379 30.9381 134.436 30.7123 134.436 30.4594V30.1523L133.036 30.4232C132.753 30.4774 132.548 30.5617 132.422 30.6761C132.302 30.7905 132.241 30.9411 132.241 31.1277C132.241 31.3325 132.311 31.492 132.449 31.6065C132.594 31.7148 132.795 31.769 133.054 31.769ZM136.712 27.6142H137.67V32.4194H136.712V27.6142ZM136.694 25.9613H137.697V26.9187H136.694V25.9613ZM138.809 27.6142H139.685L139.722 28.8877L139.64 28.8606C139.707 28.4331 139.839 28.12 140.038 27.9213C140.236 27.7166 140.51 27.6142 140.86 27.6142H141.32V28.4723H140.86C140.613 28.4723 140.408 28.5144 140.245 28.5987C140.089 28.677 139.968 28.7974 139.884 28.96C139.806 29.1226 139.767 29.3303 139.767 29.5832V32.4194H138.809V27.6142ZM145.77 32.5277C145.27 32.5277 144.87 32.4133 144.569 32.1845C144.274 31.9497 144.126 31.6275 144.126 31.2181C144.126 30.8086 144.25 30.4865 144.496 30.2516C144.743 30.0168 145.132 29.8482 145.662 29.7458L147.315 29.4297C147.315 29.0563 147.227 28.7794 147.053 28.5987C146.884 28.412 146.628 28.3187 146.285 28.3187C145.984 28.3187 145.743 28.388 145.562 28.5265C145.382 28.6589 145.261 28.8576 145.201 29.1226L144.207 29.0594C144.298 28.5716 144.524 28.1923 144.885 27.9213C145.252 27.6443 145.719 27.5058 146.285 27.5058C146.929 27.5058 147.42 27.6774 147.757 28.0206C148.1 28.3639 148.272 28.8516 148.272 29.4839V31.3536C148.272 31.468 148.293 31.5492 148.335 31.5974C148.377 31.6396 148.444 31.6606 148.534 31.6606H148.706V32.4194C148.663 32.4254 148.609 32.4314 148.543 32.4374C148.483 32.4434 148.42 32.4465 148.353 32.4465C148.022 32.4465 147.775 32.3682 147.613 32.2116C147.456 32.049 147.378 31.7781 147.378 31.3987L147.477 31.4439C147.411 31.757 147.218 32.0159 146.899 32.2206C146.58 32.4254 146.204 32.5277 145.77 32.5277ZM145.933 31.769C146.216 31.769 146.46 31.7148 146.664 31.6065C146.875 31.492 147.035 31.3355 147.143 31.1368C147.257 30.9381 147.315 30.7123 147.315 30.4594V30.1523L145.915 30.4232C145.632 30.4774 145.427 30.5617 145.3 30.6761C145.18 30.7905 145.12 30.9411 145.12 31.1277C145.12 31.3325 145.189 31.492 145.327 31.6065C145.472 31.7148 145.674 31.769 145.933 31.769ZM151.245 32.5277C150.836 32.5277 150.478 32.4254 150.171 32.2206C149.869 32.0159 149.638 31.7239 149.475 31.3445C149.312 30.9652 149.231 30.5226 149.231 30.0168C149.231 29.511 149.312 29.0684 149.475 28.689C149.638 28.3097 149.869 28.0176 150.171 27.8129C150.478 27.6082 150.836 27.5058 151.245 27.5058C151.577 27.5058 151.869 27.5751 152.121 27.7136C152.38 27.852 152.576 28.0447 152.709 28.2916V26.0065H153.666V32.4194H152.781L152.754 31.6968C152.621 31.9557 152.42 32.1604 152.149 32.311C151.884 32.4555 151.583 32.5277 151.245 32.5277ZM151.498 31.6968C151.751 31.6968 151.968 31.6305 152.149 31.4981C152.335 31.3656 152.474 31.1759 152.564 30.929C152.66 30.6761 152.709 30.372 152.709 30.0168C152.709 29.6615 152.66 29.3574 152.564 29.1045C152.474 28.8516 152.338 28.6619 152.158 28.5355C151.977 28.403 151.757 28.3368 151.498 28.3368C151.107 28.3368 150.797 28.4873 150.568 28.7884C150.339 29.0834 150.225 29.4929 150.225 30.0168C150.225 30.5346 150.339 30.9441 150.568 31.2452C150.803 31.5462 151.113 31.6968 151.498 31.6968ZM154.455 27.6142H155.476L156.785 31.4439L158.095 27.6142H159.125L157.372 32.4194H156.207L154.455 27.6142ZM161.094 32.5277C160.594 32.5277 160.194 32.4133 159.893 32.1845C159.597 31.9497 159.45 31.6275 159.45 31.2181C159.45 30.8086 159.573 30.4865 159.82 30.2516C160.067 30.0168 160.456 29.8482 160.985 29.7458L162.638 29.4297C162.638 29.0563 162.551 28.7794 162.376 28.5987C162.208 28.412 161.952 28.3187 161.609 28.3187C161.308 28.3187 161.067 28.388 160.886 28.5265C160.705 28.6589 160.585 28.8576 160.525 29.1226L159.531 29.0594C159.622 28.5716 159.847 28.1923 160.209 27.9213C160.576 27.6443 161.043 27.5058 161.609 27.5058C162.253 27.5058 162.744 27.6774 163.081 28.0206C163.424 28.3639 163.596 28.8516 163.596 29.4839V31.3536C163.596 31.468 163.617 31.5492 163.659 31.5974C163.701 31.6396 163.767 31.6606 163.858 31.6606H164.029V32.4194C163.987 32.4254 163.933 32.4314 163.867 32.4374C163.807 32.4434 163.743 32.4465 163.677 32.4465C163.346 32.4465 163.099 32.3682 162.936 32.2116C162.78 32.049 162.702 31.7781 162.702 31.3987L162.801 31.4439C162.735 31.757 162.542 32.0159 162.223 32.2206C161.904 32.4254 161.527 32.5277 161.094 32.5277ZM161.256 31.769C161.539 31.769 161.783 31.7148 161.988 31.6065C162.199 31.492 162.358 31.3355 162.467 31.1368C162.581 30.9381 162.638 30.7123 162.638 30.4594V30.1523L161.238 30.4232C160.955 30.4774 160.751 30.5617 160.624 30.6761C160.504 30.7905 160.444 30.9411 160.444 31.1277C160.444 31.3325 160.513 31.492 160.651 31.6065C160.796 31.7148 160.997 31.769 161.256 31.769ZM164.879 27.6142H165.755L165.791 28.8968L165.674 28.8336C165.752 28.388 165.93 28.0568 166.207 27.84C166.49 27.6172 166.833 27.5058 167.236 27.5058C167.754 27.5058 168.155 27.6744 168.438 28.0116C168.721 28.3428 168.862 28.7824 168.862 29.3303V32.4194H167.905V29.6194C167.905 29.1858 167.833 28.8606 167.688 28.6439C167.544 28.4211 167.306 28.3097 166.975 28.3097C166.625 28.3097 166.348 28.4241 166.144 28.6529C165.939 28.8817 165.836 29.2039 165.836 29.6194V32.4194H164.879V27.6142ZM171.694 32.4194C171.237 32.4194 170.899 32.314 170.683 32.1032C170.466 31.8925 170.358 31.5643 170.358 31.1187V26.4852H171.315V31.0465C171.315 31.2632 171.36 31.4168 171.45 31.5071C171.547 31.5914 171.697 31.6336 171.902 31.6336H172.589V32.4194H171.694ZM169.626 27.6142H172.589V28.4H169.626V27.6142ZM174.848 32.5277C174.348 32.5277 173.947 32.4133 173.646 32.1845C173.351 31.9497 173.204 31.6275 173.204 31.2181C173.204 30.8086 173.327 30.4865 173.574 30.2516C173.821 30.0168 174.209 29.8482 174.739 29.7458L176.392 29.4297C176.392 29.0563 176.305 28.7794 176.13 28.5987C175.962 28.412 175.706 28.3187 175.362 28.3187C175.061 28.3187 174.82 28.388 174.64 28.5265C174.459 28.6589 174.339 28.8576 174.279 29.1226L173.285 29.0594C173.375 28.5716 173.601 28.1923 173.962 27.9213C174.33 27.6443 174.796 27.5058 175.362 27.5058C176.007 27.5058 176.497 27.6774 176.835 28.0206C177.178 28.3639 177.349 28.8516 177.349 29.4839V31.3536C177.349 31.468 177.371 31.5492 177.413 31.5974C177.455 31.6396 177.521 31.6606 177.611 31.6606H177.783V32.4194C177.741 32.4254 177.687 32.4314 177.62 32.4374C177.56 32.4434 177.497 32.4465 177.431 32.4465C177.1 32.4465 176.853 32.3682 176.69 32.2116C176.534 32.049 176.455 31.7781 176.455 31.3987L176.555 31.4439C176.488 31.757 176.296 32.0159 175.977 32.2206C175.657 32.4254 175.281 32.5277 174.848 32.5277ZM175.01 31.769C175.293 31.769 175.537 31.7148 175.742 31.6065C175.953 31.492 176.112 31.3355 176.22 31.1368C176.335 30.9381 176.392 30.7123 176.392 30.4594V30.1523L174.992 30.4232C174.709 30.4774 174.504 30.5617 174.378 30.6761C174.257 30.7905 174.197 30.9411 174.197 31.1277C174.197 31.3325 174.266 31.492 174.405 31.6065C174.549 31.7148 174.751 31.769 175.01 31.769ZM180.549 33.8826C180.175 33.8826 179.841 33.8254 179.546 33.711C179.257 33.5966 179.019 33.434 178.833 33.2232C178.646 33.0185 178.519 32.7776 178.453 32.5006L179.447 32.4374C179.513 32.6542 179.63 32.8168 179.799 32.9252C179.974 33.0336 180.224 33.0877 180.549 33.0877C180.952 33.0877 181.256 33.0034 181.461 32.8348C181.672 32.6662 181.777 32.4103 181.777 32.0671V31.3716C181.657 31.6185 181.47 31.8142 181.217 31.9587C180.97 32.1032 180.69 32.1755 180.377 32.1755C179.98 32.1755 179.624 32.0791 179.311 31.8865C178.998 31.6877 178.751 31.4138 178.571 31.0645C178.396 30.7092 178.309 30.3028 178.309 29.8452C178.309 29.3875 178.396 28.9841 178.571 28.6348C178.745 28.2796 178.986 28.0026 179.293 27.8039C179.6 27.6052 179.953 27.5058 180.35 27.5058C180.687 27.5058 180.985 27.5841 181.244 27.7406C181.509 27.8912 181.699 28.1019 181.813 28.3729V27.6142H182.744V32.04C182.744 32.6241 182.548 33.0757 182.156 33.3948C181.765 33.72 181.229 33.8826 180.549 33.8826ZM180.531 31.3626C180.784 31.3626 181.003 31.3024 181.19 31.1819C181.377 31.0555 181.521 30.8779 181.624 30.649C181.732 30.4202 181.786 30.1492 181.786 29.8361C181.786 29.529 181.735 29.2611 181.633 29.0323C181.536 28.8034 181.392 28.6288 181.199 28.5084C181.006 28.3819 180.784 28.3187 180.531 28.3187C180.151 28.3187 179.85 28.4572 179.627 28.7342C179.411 29.0052 179.302 29.3725 179.302 29.8361C179.302 30.3058 179.414 30.6791 179.636 30.9561C179.859 31.2271 180.157 31.3626 180.531 31.3626ZM185.875 32.5277C185.417 32.5277 185.017 32.4254 184.674 32.2206C184.331 32.0159 184.066 31.7239 183.879 31.3445C183.692 30.9652 183.599 30.5226 183.599 30.0168C183.599 29.517 183.692 29.0774 183.879 28.6981C184.066 28.3127 184.328 28.0176 184.665 27.8129C185.002 27.6082 185.396 27.5058 185.848 27.5058C186.288 27.5058 186.673 27.6082 187.004 27.8129C187.335 28.0116 187.591 28.3037 187.772 28.689C187.958 29.0684 188.052 29.523 188.052 30.0529V30.2968H184.601C184.62 30.7544 184.74 31.1037 184.963 31.3445C185.192 31.5854 185.499 31.7058 185.884 31.7058C186.167 31.7058 186.402 31.6426 186.589 31.5161C186.775 31.3897 186.908 31.209 186.986 30.9742L187.98 31.0374C187.853 31.4951 187.6 31.8594 187.221 32.1303C186.848 32.3953 186.399 32.5277 185.875 32.5277ZM187.031 29.5742C187.001 29.1587 186.881 28.8456 186.67 28.6348C186.465 28.4241 186.191 28.3187 185.848 28.3187C185.505 28.3187 185.222 28.4271 184.999 28.6439C184.782 28.8606 184.65 29.1708 184.601 29.5742H187.031ZM188.757 31.2813H189.931V32.4194H188.757V31.2813Z" fill="black"/>
<rect x="118.71" y="11.1613" width="23.625" height="4.725" rx="2.3625" fill="#F9E3E2"/>
</g>
</g>
<defs>
<clipPath id="clip0_406_10">
<rect width="260" height="130" rx="4.5" fill="white"/>
</clipPath>
<clipPath id="clip1_406_10">
<rect y="1" width="260" height="130" rx="4.5" fill="white"/>
</clipPath>
</defs>
</svg>
