<svg width="260" height="130" viewBox="0 0 260 130" fill="none" xmlns="http://www.w3.org/2000/svg">
<g clip-path="url(#clip0_253_353)">
<rect width="260" height="130" rx="4.5" fill="white"/>
<rect x="122" y="6.67505" width="15.5625" height="6.5625" rx="3" fill="#F9E3E2"/>
<rect x="79" y="19.9875" width="102.188" height="7.5" rx="3" fill="#D9D9D9" fill-opacity="0.85098"/>
<rect x="24.687" y="91.05" width="57" height="8.4375" rx="3" fill="#FF8C9C"/>
<rect x="24.687" y="76.05" width="19.875" height="8.4375" rx="3" fill="#D9D9D9"/>
<rect x="24.687" y="61.05" width="55.3125" height="4.5" rx="2.25" fill="#D9D9D9"/>
<rect x="24.687" y="52.8" width="22.5" height="4.5" rx="2.25" fill="#F9E3E2"/>
<rect x="20.0937" y="48.7688" width="66.9375" height="96.375" rx="2.15625" stroke="#D9D9D9" stroke-width="0.1875"/>
<rect x="30.3125" y="108.113" width="30.5625" height="3" rx="1.5" fill="#D9D9D9"/>
<rect x="30.3125" y="118.05" width="48" height="3" rx="1.5" fill="#D9D9D9"/>
<rect x="30.3125" y="127.988" width="38.25" height="3" rx="1.5" fill="#D9D9D9"/>
<rect x="24.8755" y="117.675" width="3.75" height="3.75" fill="#F9E3E2"/>
<rect x="24.8755" y="127.612" width="3.75" height="3.75" fill="#F9E3E2"/>
<rect x="24.8755" y="107.738" width="3.75" height="3.75" fill="#F9E3E2"/>
<rect x="99.125" y="91.05" width="57" height="8.4375" rx="3" fill="#FF8C9C"/>
<rect x="99.125" y="76.05" width="19.875" height="8.4375" rx="3" fill="#D9D9D9"/>
<rect x="99.125" y="61.05" width="55.3125" height="4.5" rx="2.25" fill="#D9D9D9"/>
<rect x="99.125" y="52.8" width="22.5" height="4.5" rx="2.25" fill="#F9E3E2"/>
<rect x="94.5308" y="48.7688" width="66.9375" height="96.375" rx="2.15625" stroke="#D9D9D9" stroke-width="0.1875"/>
<rect x="104.75" y="108.113" width="30.5625" height="3" rx="1.5" fill="#D9D9D9"/>
<rect x="104.75" y="118.05" width="48" height="3" rx="1.5" fill="#D9D9D9"/>
<rect x="104.75" y="127.988" width="38.25" height="3" rx="1.5" fill="#D9D9D9"/>
<rect x="99.312" y="117.675" width="3.75" height="3.75" fill="#F9E3E2"/>
<rect x="99.312" y="127.612" width="3.75" height="3.75" fill="#F9E3E2"/>
<rect x="99.312" y="107.738" width="3.75" height="3.75" fill="#F9E3E2"/>
<rect x="173.124" y="91.05" width="57" height="8.4375" rx="3" fill="#FF8C9C"/>
<rect x="173.124" y="76.05" width="19.875" height="8.4375" rx="3" fill="#D9D9D9"/>
<rect x="173.124" y="61.05" width="55.3125" height="4.5" rx="2.25" fill="#D9D9D9"/>
<rect x="173.124" y="52.8" width="22.5" height="4.5" rx="2.25" fill="#F9E3E2"/>
<rect x="168.531" y="48.7688" width="66.9375" height="96.375" rx="2.15625" stroke="#D9D9D9" stroke-width="0.1875"/>
<rect x="178.75" y="108.113" width="30.5625" height="3" rx="1.5" fill="#D9D9D9"/>
<rect x="178.75" y="118.05" width="48" height="3" rx="1.5" fill="#D9D9D9"/>
<rect x="178.75" y="127.988" width="38.25" height="3" rx="1.5" fill="#D9D9D9"/>
<rect x="173.313" y="117.675" width="3.75" height="3.75" fill="#F9E3E2"/>
<rect x="173.313" y="127.612" width="3.75" height="3.75" fill="#F9E3E2"/>
<rect x="173.313" y="107.738" width="3.75" height="3.75" fill="#F9E3E2"/>
</g>
<defs>
<clipPath id="clip0_253_353">
<rect width="260" height="130" rx="4.5" fill="white"/>
</clipPath>
</defs>
</svg>
