<svg width="378" height="203" viewBox="0 0 378 203" fill="none" xmlns="http://www.w3.org/2000/svg">
<rect x="0.5" y="0.5" width="377" height="202" rx="10.5" fill="white" stroke="#E2E2E2"/>
<rect x="107" y="46" width="40" height="40" rx="20" fill="white"/>
<rect x="107" y="46" width="40" height="40" rx="20" fill="#FFE3E5"/>
<rect x="45" y="46" width="40" height="40" rx="20" fill="white"/>
<rect x="45" y="46" width="40" height="40" rx="20" fill="#FFE3E5"/>
<rect x="169" y="46" width="40" height="40" rx="20" fill="white"/>
<rect x="169" y="46" width="40" height="40" rx="20" fill="#FB3A5D"/>
<rect x="231" y="46" width="40" height="40" rx="20" fill="white"/>
<rect x="231" y="46" width="40" height="40" rx="20" fill="#FFE3E5"/>
<rect x="293" y="46" width="40" height="40" rx="20" fill="white"/>
<rect x="293" y="46" width="40" height="40" rx="20" fill="#FFE3E5"/>
<rect x="94" y="141" width="191" height="15" rx="5.4433" fill="#D9D9D9"/>
<path d="M63.0053 110.5V109.124C63.0053 108.728 63.0795 108.316 63.228 107.889C63.3809 107.457 63.5878 107.05 63.8487 106.668C64.1141 106.281 64.411 105.955 64.7393 105.689L65.8729 106.425C65.6075 106.825 65.3848 107.243 65.2049 107.68C65.0295 108.112 64.944 108.588 64.9485 109.11V110.5H63.0053ZM66.4261 110.5V109.124C66.4261 108.728 66.5004 108.316 66.6488 107.889C66.8017 107.457 67.0086 107.05 67.2695 106.668C67.5349 106.281 67.8318 105.955 68.1602 105.689L69.2937 106.425C69.0283 106.825 68.8056 107.243 68.6257 107.68C68.4503 108.112 68.3648 108.588 68.3693 109.11V110.5H66.4261ZM78.6284 109.98C78.5654 109.391 78.3 108.932 77.8322 108.604C77.3689 108.276 76.7662 108.112 76.024 108.112C75.5022 108.112 75.0546 108.19 74.6813 108.348C74.3079 108.505 74.0223 108.719 73.8244 108.989C73.6265 109.259 73.5253 109.567 73.5208 109.913C73.5208 110.201 73.586 110.451 73.7164 110.662C73.8514 110.873 74.0336 111.053 74.263 111.202C74.4924 111.346 74.7465 111.467 75.0254 111.566C75.3043 111.665 75.5854 111.748 75.8688 111.816L77.1642 112.14C77.686 112.261 78.1876 112.425 78.6689 112.632C79.1547 112.839 79.5887 113.1 79.9711 113.415C80.3579 113.73 80.6638 114.11 80.8887 114.555C81.1136 115 81.226 115.522 81.226 116.12C81.226 116.93 81.0191 117.643 80.6053 118.259C80.1915 118.871 79.5932 119.35 78.8105 119.696C78.0324 120.038 77.09 120.209 75.9835 120.209C74.9084 120.209 73.9751 120.043 73.1834 119.71C72.3962 119.377 71.78 118.891 71.3347 118.252C70.8939 117.614 70.6555 116.836 70.6195 115.918H73.0822C73.1182 116.399 73.2666 116.8 73.5275 117.119C73.7884 117.438 74.128 117.677 74.5463 117.834C74.9692 117.992 75.4415 118.07 75.9632 118.07C76.5075 118.07 76.9843 117.989 77.3936 117.827C77.8075 117.661 78.1313 117.432 78.3652 117.139C78.5991 116.842 78.7183 116.496 78.7228 116.1C78.7183 115.74 78.6126 115.443 78.4057 115.21C78.1988 114.971 77.9087 114.773 77.5353 114.616C77.1665 114.454 76.7347 114.31 76.2399 114.184L74.6678 113.779C73.5298 113.487 72.6301 113.044 71.9689 112.45C71.3122 111.852 70.9838 111.058 70.9838 110.068C70.9838 109.254 71.2042 108.541 71.6451 107.929C72.0904 107.318 72.6954 106.843 73.46 106.506C74.2247 106.164 75.0906 105.993 76.0577 105.993C77.0383 105.993 77.8974 106.164 78.6351 106.506C79.3773 106.843 79.9598 107.313 80.3826 107.916C80.8055 108.514 81.0236 109.202 81.0371 109.98H78.6284ZM84.8678 123.886C84.5349 123.886 84.2268 123.859 83.9434 123.805C83.6646 123.756 83.4419 123.697 83.2755 123.63L83.8422 121.727C84.1976 121.831 84.5147 121.88 84.7936 121.876C85.0725 121.871 85.3176 121.783 85.529 121.613C85.7449 121.446 85.9271 121.167 86.0756 120.776L86.2847 120.216L82.5265 109.636H85.1175L87.5059 117.463H87.6139L90.0091 109.636H92.6068L88.4573 121.255C88.2639 121.804 88.0075 122.274 87.6881 122.665C87.3688 123.061 86.9774 123.362 86.5141 123.569C86.0553 123.781 85.5065 123.886 84.8678 123.886ZM96.7394 113.928V120H94.297V109.636H96.6315V111.397H96.7529C96.9913 110.817 97.3714 110.356 97.8932 110.014C98.4195 109.672 99.0695 109.501 99.8431 109.501C100.558 109.501 101.181 109.654 101.712 109.96C102.247 110.266 102.661 110.709 102.954 111.289C103.25 111.87 103.397 112.574 103.392 113.401V120H100.95V113.779C100.95 113.086 100.77 112.544 100.41 112.153C100.055 111.762 99.562 111.566 98.9323 111.566C98.5049 111.566 98.1249 111.661 97.792 111.849C97.4636 112.034 97.205 112.301 97.0161 112.652C96.8316 113.003 96.7394 113.428 96.7394 113.928ZM111.05 109.636V111.526H105.092V109.636H111.05ZM106.563 107.153H109.006V116.883C109.006 117.211 109.055 117.463 109.154 117.638C109.258 117.809 109.393 117.926 109.559 117.989C109.725 118.052 109.91 118.084 110.112 118.084C110.265 118.084 110.405 118.073 110.531 118.05C110.661 118.028 110.76 118.007 110.828 117.989L111.239 119.899C111.109 119.944 110.922 119.993 110.679 120.047C110.441 120.101 110.148 120.133 109.802 120.142C109.19 120.16 108.639 120.067 108.149 119.865C107.659 119.658 107.27 119.339 106.982 118.907C106.698 118.475 106.559 117.935 106.563 117.288V107.153ZM116.075 120.209C115.418 120.209 114.827 120.092 114.301 119.858C113.779 119.62 113.365 119.269 113.059 118.806C112.758 118.342 112.607 117.771 112.607 117.092C112.607 116.507 112.715 116.024 112.931 115.641C113.147 115.259 113.441 114.953 113.815 114.724C114.188 114.494 114.609 114.321 115.077 114.204C115.549 114.083 116.037 113.995 116.541 113.941C117.148 113.878 117.64 113.822 118.018 113.772C118.396 113.718 118.671 113.637 118.841 113.529C119.017 113.417 119.105 113.244 119.105 113.01V112.969C119.105 112.461 118.954 112.068 118.653 111.789C118.351 111.51 117.917 111.37 117.35 111.37C116.752 111.37 116.278 111.501 115.927 111.762C115.58 112.023 115.346 112.331 115.225 112.686L112.944 112.362C113.124 111.732 113.421 111.206 113.835 110.783C114.249 110.356 114.755 110.037 115.353 109.825C115.951 109.609 116.613 109.501 117.337 109.501C117.836 109.501 118.333 109.56 118.828 109.677C119.323 109.794 119.775 109.987 120.184 110.257C120.593 110.522 120.922 110.885 121.169 111.343C121.421 111.802 121.547 112.376 121.547 113.064V120H119.199V118.576H119.118C118.97 118.864 118.76 119.134 118.491 119.386C118.225 119.633 117.89 119.834 117.485 119.987C117.085 120.135 116.615 120.209 116.075 120.209ZM116.709 118.414C117.2 118.414 117.625 118.318 117.985 118.124C118.344 117.926 118.621 117.665 118.814 117.342C119.012 117.018 119.111 116.665 119.111 116.282V115.061C119.035 115.124 118.904 115.183 118.72 115.237C118.54 115.29 118.338 115.338 118.113 115.378C117.888 115.419 117.665 115.455 117.445 115.486C117.224 115.518 117.033 115.545 116.871 115.567C116.507 115.617 116.181 115.698 115.893 115.81C115.605 115.922 115.378 116.08 115.211 116.282C115.045 116.48 114.962 116.737 114.962 117.051C114.962 117.501 115.126 117.841 115.454 118.07C115.783 118.3 116.201 118.414 116.709 118.414ZM126 109.636L128.092 113.462L130.217 109.636H132.801L129.677 114.818L132.855 120H130.285L128.092 116.269L125.919 120H123.328L126.486 114.818L123.409 109.636H126ZM143.509 106.182H146.012V115.21C146.012 116.199 145.778 117.069 145.311 117.821C144.847 118.572 144.195 119.159 143.354 119.582C142.513 120 141.53 120.209 140.405 120.209C139.276 120.209 138.291 120 137.45 119.582C136.609 119.159 135.957 118.572 135.493 117.821C135.03 117.069 134.798 116.199 134.798 115.21V106.182H137.302V115C137.302 115.576 137.428 116.089 137.68 116.539C137.936 116.989 138.296 117.342 138.759 117.598C139.222 117.85 139.771 117.976 140.405 117.976C141.04 117.976 141.588 117.85 142.052 117.598C142.519 117.342 142.879 116.989 143.131 116.539C143.383 116.089 143.509 115.576 143.509 115V106.182ZM151.236 106.182V120H148.733V106.182H151.236ZM158.552 120V109.636H160.994V120H158.552ZM159.78 108.165C159.393 108.165 159.06 108.037 158.781 107.781C158.502 107.52 158.363 107.207 158.363 106.843C158.363 106.474 158.502 106.162 158.781 105.905C159.06 105.644 159.393 105.514 159.78 105.514C160.171 105.514 160.504 105.644 160.778 105.905C161.057 106.162 161.197 106.474 161.197 106.843C161.197 107.207 161.057 107.52 160.778 107.781C160.504 108.037 160.171 108.165 159.78 108.165ZM171.697 112.376L169.47 112.619C169.407 112.394 169.297 112.182 169.14 111.984C168.987 111.786 168.78 111.627 168.519 111.505C168.258 111.384 167.939 111.323 167.561 111.323C167.053 111.323 166.625 111.433 166.279 111.654C165.937 111.874 165.768 112.16 165.773 112.511C165.768 112.812 165.879 113.057 166.104 113.246C166.333 113.435 166.711 113.59 167.237 113.712L169.005 114.089C169.985 114.301 170.714 114.636 171.191 115.095C171.672 115.554 171.915 116.154 171.92 116.896C171.915 117.549 171.724 118.124 171.346 118.624C170.973 119.118 170.453 119.505 169.788 119.784C169.122 120.063 168.357 120.202 167.494 120.202C166.225 120.202 165.204 119.937 164.43 119.406C163.657 118.871 163.196 118.127 163.047 117.173L165.429 116.944C165.537 117.411 165.766 117.764 166.117 118.003C166.468 118.241 166.925 118.36 167.487 118.36C168.067 118.36 168.533 118.241 168.883 118.003C169.239 117.764 169.416 117.47 169.416 117.119C169.416 116.822 169.302 116.577 169.072 116.384C168.847 116.19 168.497 116.042 168.02 115.938L166.252 115.567C165.258 115.36 164.523 115.012 164.046 114.521C163.569 114.027 163.333 113.401 163.337 112.646C163.333 112.007 163.506 111.454 163.857 110.986C164.212 110.513 164.705 110.149 165.334 109.893C165.969 109.632 166.7 109.501 167.527 109.501C168.742 109.501 169.698 109.76 170.395 110.277C171.097 110.795 171.531 111.494 171.697 112.376ZM186.838 112.376L184.611 112.619C184.548 112.394 184.438 112.182 184.28 111.984C184.128 111.786 183.921 111.627 183.66 111.505C183.399 111.384 183.079 111.323 182.702 111.323C182.193 111.323 181.766 111.433 181.42 111.654C181.078 111.874 180.909 112.16 180.914 112.511C180.909 112.812 181.019 113.057 181.244 113.246C181.474 113.435 181.851 113.59 182.378 113.712L184.146 114.089C185.126 114.301 185.855 114.636 186.332 115.095C186.813 115.554 187.056 116.154 187.06 116.896C187.056 117.549 186.865 118.124 186.487 118.624C186.113 119.118 185.594 119.505 184.928 119.784C184.262 120.063 183.498 120.202 182.634 120.202C181.366 120.202 180.345 119.937 179.571 119.406C178.797 118.871 178.336 118.127 178.188 117.173L180.57 116.944C180.677 117.411 180.907 117.764 181.258 118.003C181.609 118.241 182.065 118.36 182.627 118.36C183.208 118.36 183.673 118.241 184.024 118.003C184.379 117.764 184.557 117.47 184.557 117.119C184.557 116.822 184.442 116.577 184.213 116.384C183.988 116.19 183.637 116.042 183.16 115.938L181.393 115.567C180.399 115.36 179.663 115.012 179.186 114.521C178.71 114.027 178.473 113.401 178.478 112.646C178.473 112.007 178.647 111.454 178.997 110.986C179.353 110.513 179.845 110.149 180.475 109.893C181.109 109.632 181.84 109.501 182.668 109.501C183.882 109.501 184.838 109.76 185.535 110.277C186.237 110.795 186.671 111.494 186.838 112.376ZM193.595 120.202C192.583 120.202 191.706 119.98 190.964 119.534C190.221 119.089 189.646 118.466 189.236 117.665C188.831 116.865 188.629 115.929 188.629 114.859C188.629 113.788 188.831 112.85 189.236 112.045C189.646 111.24 190.221 110.615 190.964 110.169C191.706 109.724 192.583 109.501 193.595 109.501C194.607 109.501 195.484 109.724 196.226 110.169C196.968 110.615 197.542 111.24 197.947 112.045C198.356 112.85 198.561 113.788 198.561 114.859C198.561 115.929 198.356 116.865 197.947 117.665C197.542 118.466 196.968 119.089 196.226 119.534C195.484 119.98 194.607 120.202 193.595 120.202ZM193.608 118.246C194.157 118.246 194.616 118.095 194.985 117.794C195.354 117.488 195.628 117.078 195.808 116.566C195.992 116.053 196.085 115.482 196.085 114.852C196.085 114.218 195.992 113.644 195.808 113.131C195.628 112.614 195.354 112.203 194.985 111.897C194.616 111.591 194.157 111.438 193.608 111.438C193.046 111.438 192.578 111.591 192.205 111.897C191.836 112.203 191.56 112.614 191.375 113.131C191.195 113.644 191.105 114.218 191.105 114.852C191.105 115.482 191.195 116.053 191.375 116.566C191.56 117.078 191.836 117.488 192.205 117.794C192.578 118.095 193.046 118.246 193.608 118.246ZM209.193 120.182C208.378 120.182 207.65 119.973 207.007 119.555C206.363 119.136 205.855 118.529 205.482 117.733C205.108 116.937 204.922 115.97 204.922 114.832C204.922 113.68 205.111 112.709 205.488 111.917C205.871 111.121 206.386 110.52 207.034 110.115C207.681 109.706 208.403 109.501 209.199 109.501C209.807 109.501 210.306 109.605 210.697 109.812C211.089 110.014 211.399 110.259 211.628 110.547C211.858 110.831 212.035 111.098 212.161 111.35H212.263V106.182H214.712V120H212.31V118.367H212.161C212.035 118.619 211.853 118.887 211.615 119.17C211.376 119.449 211.062 119.687 210.67 119.885C210.279 120.083 209.786 120.182 209.193 120.182ZM209.874 118.178C210.391 118.178 210.832 118.039 211.197 117.76C211.561 117.477 211.838 117.083 212.026 116.579C212.215 116.075 212.31 115.488 212.31 114.818C212.31 114.148 212.215 113.565 212.026 113.071C211.842 112.576 211.568 112.191 211.203 111.917C210.843 111.643 210.4 111.505 209.874 111.505C209.33 111.505 208.876 111.647 208.511 111.93C208.147 112.214 207.872 112.605 207.688 113.104C207.504 113.604 207.411 114.175 207.411 114.818C207.411 115.466 207.504 116.044 207.688 116.552C207.877 117.056 208.154 117.454 208.518 117.746C208.887 118.034 209.339 118.178 209.874 118.178ZM220.297 120.209C219.64 120.209 219.049 120.092 218.522 119.858C218.001 119.62 217.587 119.269 217.281 118.806C216.979 118.342 216.829 117.771 216.829 117.092C216.829 116.507 216.937 116.024 217.153 115.641C217.369 115.259 217.663 114.953 218.036 114.724C218.41 114.494 218.83 114.321 219.298 114.204C219.771 114.083 220.259 113.995 220.762 113.941C221.37 113.878 221.862 113.822 222.24 113.772C222.618 113.718 222.892 113.637 223.063 113.529C223.239 113.417 223.326 113.244 223.326 113.01V112.969C223.326 112.461 223.176 112.068 222.874 111.789C222.573 111.51 222.139 111.37 221.572 111.37C220.974 111.37 220.499 111.501 220.148 111.762C219.802 112.023 219.568 112.331 219.447 112.686L217.166 112.362C217.346 111.732 217.643 111.206 218.057 110.783C218.471 110.356 218.977 110.037 219.575 109.825C220.173 109.609 220.834 109.501 221.559 109.501C222.058 109.501 222.555 109.56 223.05 109.677C223.544 109.794 223.996 109.987 224.406 110.257C224.815 110.522 225.143 110.885 225.391 111.343C225.643 111.802 225.769 112.376 225.769 113.064V120H223.421V118.576H223.34C223.191 118.864 222.982 119.134 222.712 119.386C222.447 119.633 222.112 119.834 221.707 119.987C221.307 120.135 220.837 120.209 220.297 120.209ZM220.931 118.414C221.421 118.414 221.846 118.318 222.206 118.124C222.566 117.926 222.843 117.665 223.036 117.342C223.234 117.018 223.333 116.665 223.333 116.282V115.061C223.257 115.124 223.126 115.183 222.942 115.237C222.762 115.29 222.559 115.338 222.334 115.378C222.11 115.419 221.887 115.455 221.666 115.486C221.446 115.518 221.255 115.545 221.093 115.567C220.729 115.617 220.402 115.698 220.115 115.81C219.827 115.922 219.6 116.08 219.433 116.282C219.267 116.48 219.184 116.737 219.184 117.051C219.184 117.501 219.348 117.841 219.676 118.07C220.004 118.3 220.423 118.414 220.931 118.414ZM228.225 120V109.636H230.559V111.397H230.681C230.897 110.804 231.254 110.34 231.753 110.007C232.253 109.67 232.849 109.501 233.541 109.501C234.243 109.501 234.835 109.672 235.316 110.014C235.802 110.352 236.144 110.813 236.342 111.397H236.449C236.679 110.822 237.066 110.363 237.61 110.021C238.159 109.675 238.809 109.501 239.56 109.501C240.514 109.501 241.292 109.803 241.894 110.406C242.497 111.008 242.799 111.888 242.799 113.044V120H240.349V113.422C240.349 112.778 240.178 112.308 239.837 112.011C239.495 111.71 239.076 111.559 238.582 111.559C237.992 111.559 237.531 111.744 237.198 112.113C236.87 112.477 236.706 112.951 236.706 113.536V120H234.311V113.32C234.311 112.785 234.149 112.358 233.825 112.038C233.505 111.719 233.087 111.559 232.57 111.559C232.219 111.559 231.9 111.649 231.612 111.829C231.324 112.005 231.094 112.254 230.924 112.578C230.753 112.897 230.667 113.271 230.667 113.698V120H228.225ZM247.719 113.928V120H245.276V109.636H247.611V111.397H247.732C247.971 110.817 248.351 110.356 248.873 110.014C249.399 109.672 250.049 109.501 250.823 109.501C251.538 109.501 252.161 109.654 252.692 109.96C253.227 110.266 253.641 110.709 253.933 111.289C254.23 111.87 254.376 112.574 254.372 113.401V120H251.929V113.779C251.929 113.086 251.749 112.544 251.389 112.153C251.034 111.762 250.541 111.566 249.912 111.566C249.484 111.566 249.104 111.661 248.771 111.849C248.443 112.034 248.184 112.301 247.996 112.652C247.811 113.003 247.719 113.428 247.719 113.928ZM266.075 124.102C265.197 124.102 264.444 123.983 263.814 123.745C263.185 123.511 262.679 123.196 262.296 122.8C261.914 122.404 261.648 121.966 261.5 121.484L263.7 120.951C263.799 121.154 263.942 121.354 264.131 121.552C264.32 121.754 264.574 121.921 264.894 122.051C265.218 122.186 265.625 122.254 266.115 122.254C266.808 122.254 267.381 122.085 267.836 121.748C268.29 121.415 268.517 120.866 268.517 120.101V118.138H268.396C268.27 118.39 268.085 118.648 267.842 118.914C267.604 119.179 267.287 119.402 266.891 119.582C266.5 119.762 266.007 119.852 265.413 119.852C264.617 119.852 263.895 119.665 263.248 119.292C262.604 118.914 262.092 118.351 261.709 117.605C261.331 116.854 261.142 115.913 261.142 114.784C261.142 113.646 261.331 112.686 261.709 111.903C262.092 111.116 262.607 110.52 263.254 110.115C263.902 109.706 264.624 109.501 265.42 109.501C266.027 109.501 266.527 109.605 266.918 109.812C267.314 110.014 267.629 110.259 267.863 110.547C268.096 110.831 268.274 111.098 268.396 111.35H268.531V109.636H270.939V120.169C270.939 121.055 270.728 121.788 270.305 122.368C269.882 122.949 269.304 123.383 268.571 123.67C267.838 123.958 267.006 124.102 266.075 124.102ZM266.095 117.935C266.612 117.935 267.053 117.809 267.417 117.558C267.782 117.306 268.058 116.944 268.247 116.471C268.436 115.999 268.531 115.432 268.531 114.771C268.531 114.119 268.436 113.547 268.247 113.057C268.063 112.567 267.788 112.187 267.424 111.917C267.064 111.643 266.621 111.505 266.095 111.505C265.551 111.505 265.096 111.647 264.732 111.93C264.368 112.214 264.093 112.603 263.909 113.098C263.724 113.588 263.632 114.146 263.632 114.771C263.632 115.405 263.724 115.961 263.909 116.438C264.098 116.91 264.374 117.279 264.739 117.544C265.107 117.805 265.56 117.935 266.095 117.935ZM277.963 120.202C276.951 120.202 276.074 119.98 275.332 119.534C274.589 119.089 274.014 118.466 273.604 117.665C273.2 116.865 272.997 115.929 272.997 114.859C272.997 113.788 273.2 112.85 273.604 112.045C274.014 111.24 274.589 110.615 275.332 110.169C276.074 109.724 276.951 109.501 277.963 109.501C278.975 109.501 279.852 109.724 280.594 110.169C281.337 110.615 281.91 111.24 282.315 112.045C282.724 112.85 282.929 113.788 282.929 114.859C282.929 115.929 282.724 116.865 282.315 117.665C281.91 118.466 281.337 119.089 280.594 119.534C279.852 119.98 278.975 120.202 277.963 120.202ZM277.977 118.246C278.525 118.246 278.984 118.095 279.353 117.794C279.722 117.488 279.996 117.078 280.176 116.566C280.361 116.053 280.453 115.482 280.453 114.852C280.453 114.218 280.361 113.644 280.176 113.131C279.996 112.614 279.722 112.203 279.353 111.897C278.984 111.591 278.525 111.438 277.977 111.438C277.414 111.438 276.946 111.591 276.573 111.897C276.204 112.203 275.928 112.614 275.743 113.131C275.563 113.644 275.473 114.218 275.473 114.852C275.473 115.482 275.563 116.053 275.743 116.566C275.928 117.078 276.204 117.488 276.573 117.794C276.946 118.095 277.414 118.246 277.977 118.246ZM289.523 120.202C288.511 120.202 287.633 119.98 286.891 119.534C286.149 119.089 285.573 118.466 285.164 117.665C284.759 116.865 284.557 115.929 284.557 114.859C284.557 113.788 284.759 112.85 285.164 112.045C285.573 111.24 286.149 110.615 286.891 110.169C287.633 109.724 288.511 109.501 289.523 109.501C290.535 109.501 291.412 109.724 292.154 110.169C292.896 110.615 293.47 111.24 293.875 112.045C294.284 112.85 294.489 113.788 294.489 114.859C294.489 115.929 294.284 116.865 293.875 117.665C293.47 118.466 292.896 119.089 292.154 119.534C291.412 119.98 290.535 120.202 289.523 120.202ZM289.536 118.246C290.085 118.246 290.544 118.095 290.913 117.794C291.281 117.488 291.556 117.078 291.736 116.566C291.92 116.053 292.012 115.482 292.012 114.852C292.012 114.218 291.92 113.644 291.736 113.131C291.556 112.614 291.281 112.203 290.913 111.897C290.544 111.591 290.085 111.438 289.536 111.438C288.974 111.438 288.506 111.591 288.133 111.897C287.764 112.203 287.487 112.614 287.303 113.131C287.123 113.644 287.033 114.218 287.033 114.852C287.033 115.482 287.123 116.053 287.303 116.566C287.487 117.078 287.764 117.488 288.133 117.794C288.506 118.095 288.974 118.246 289.536 118.246ZM300.407 120.182C299.593 120.182 298.865 119.973 298.221 119.555C297.578 119.136 297.07 118.529 296.697 117.733C296.323 116.937 296.137 115.97 296.137 114.832C296.137 113.68 296.325 112.709 296.703 111.917C297.086 111.121 297.601 110.52 298.248 110.115C298.896 109.706 299.618 109.501 300.414 109.501C301.021 109.501 301.521 109.605 301.912 109.812C302.303 110.014 302.614 110.259 302.843 110.547C303.073 110.831 303.25 111.098 303.376 111.35H303.477V106.182H305.927V120H303.525V118.367H303.376C303.25 118.619 303.068 118.887 302.83 119.17C302.591 119.449 302.276 119.687 301.885 119.885C301.494 120.083 301.001 120.182 300.407 120.182ZM301.089 118.178C301.606 118.178 302.047 118.039 302.411 117.76C302.776 117.477 303.052 117.083 303.241 116.579C303.43 116.075 303.525 115.488 303.525 114.818C303.525 114.148 303.43 113.565 303.241 113.071C303.057 112.576 302.782 112.191 302.418 111.917C302.058 111.643 301.615 111.505 301.089 111.505C300.545 111.505 300.09 111.647 299.726 111.93C299.362 112.214 299.087 112.605 298.903 113.104C298.718 113.604 298.626 114.175 298.626 114.818C298.626 115.466 298.718 116.044 298.903 116.552C299.092 117.056 299.368 117.454 299.733 117.746C300.102 118.034 300.554 118.178 301.089 118.178ZM310.601 106.182V107.558C310.601 107.954 310.524 108.366 310.371 108.793C310.223 109.216 310.018 109.621 309.757 110.007C309.496 110.39 309.2 110.718 308.867 110.993L307.733 110.257C307.981 109.884 308.197 109.481 308.381 109.049C308.565 108.613 308.658 108.121 308.658 107.572V106.182H310.601ZM314.008 106.182V107.558C314.008 107.954 313.932 108.366 313.779 108.793C313.63 109.216 313.426 109.621 313.165 110.007C312.904 110.39 312.609 110.718 312.281 110.993L311.147 110.257C311.39 109.884 311.604 109.481 311.788 109.049C311.973 108.613 312.065 108.121 312.065 107.572V106.182H314.008Z" fill="black"/>
</svg>
